<svg xmlns="http://www.w3.org/2000/svg" width="511" height="243" fill="none" viewBox="0 0 511 243">
  <path stroke="#fff" stroke-opacity=".28" d="M3 39.5h508"/>
  <path fill="#fff" fill-opacity=".44" d="M35.972 68.273V77h-1.057v-7.62h-.051l-2.131 1.416v-1.074l2.182-1.45h1.057ZM32.903 103v-.767l2.881-3.154c.338-.369.617-.69.835-.962.22-.276.381-.535.486-.776.108-.244.162-.5.162-.767 0-.307-.074-.573-.222-.797a1.439 1.439 0 0 0-.596-.52 1.934 1.934 0 0 0-.852-.183c-.336 0-.628.07-.878.209a1.436 1.436 0 0 0-.575.575 1.8 1.8 0 0 0-.2.87h-1.007c0-.512.118-.961.354-1.347.236-.387.557-.688.963-.904.41-.216.868-.324 1.377-.324.511 0 .964.108 1.36.324.394.216.704.507.928.874.225.366.337.774.337 1.223 0 .32-.059.635-.175.942-.114.304-.313.643-.597 1.018-.28.372-.672.827-1.172 1.364l-1.96 2.096v.068h4.057V103h-5.506Zm2.95 26.119c-.563 0-1.065-.096-1.505-.289a2.583 2.583 0 0 1-1.044-.806 2.162 2.162 0 0 1-.418-1.206h1.074c.023.281.12.524.29.729.17.202.394.358.669.469.276.11.581.166.916.166.375 0 .708-.066.997-.196a1.64 1.64 0 0 0 .682-.546c.165-.233.247-.502.247-.809 0-.321-.08-.604-.238-.848a1.58 1.58 0 0 0-.7-.58c-.306-.139-.681-.209-1.124-.209H35v-.937h.699c.346 0 .65-.063.912-.188a1.415 1.415 0 0 0 .844-1.329c0-.296-.066-.553-.197-.772a1.344 1.344 0 0 0-.553-.511 1.795 1.795 0 0 0-.836-.183 2.2 2.2 0 0 0-.852.166c-.264.108-.48.266-.648.473a1.234 1.234 0 0 0-.272.742h-1.023c.017-.458.155-.858.413-1.202a2.598 2.598 0 0 1 1.014-.81 3.28 3.28 0 0 1 1.385-.29c.54 0 1.003.11 1.39.329a2.3 2.3 0 0 1 .89.856c.208.355.311.739.311 1.151 0 .491-.129.91-.387 1.257a1.971 1.971 0 0 1-1.045.72v.068c.552.091.982.325 1.292.703.31.375.464.84.464 1.394 0 .474-.13.9-.388 1.278a2.627 2.627 0 0 1-1.048.886c-.443.216-.947.324-1.513.324Zm-3.154 24.091v-.869l3.835-6.068h.63v1.346h-.425l-2.898 4.586v.068h5.165v.937h-6.307Zm4.108 1.79v-8.727h1.005V155h-1.005Zm-1.176 26.119c-.5 0-.95-.099-1.351-.298a2.514 2.514 0 0 1-.963-.818 2.231 2.231 0 0 1-.397-1.185h1.023a1.4 1.4 0 0 0 .537.98c.321.256.705.384 1.15.384.359 0 .677-.084.955-.252.282-.167.502-.397.66-.69.163-.295.244-.629.244-1.001a2.04 2.04 0 0 0-.252-1.019 1.842 1.842 0 0 0-.682-.711 1.922 1.922 0 0 0-.992-.265 2.73 2.73 0 0 0-.823.124 2.269 2.269 0 0 0-.695.32l-.988-.12.528-4.295h4.534v.937h-3.647l-.307 2.574h.05a2.3 2.3 0 0 1 .674-.354c.27-.093.551-.14.844-.14a2.684 2.684 0 0 1 2.416 1.423c.242.44.362.943.362 1.509 0 .556-.125 1.054-.375 1.491a2.74 2.74 0 0 1-1.022 1.031 2.92 2.92 0 0 1-1.483.375Z"/>
  <path fill="#fff" d="M61.276 78.16c-.736 0-1.37-.163-1.905-.488a3.27 3.27 0 0 1-1.227-1.372c-.286-.59-.428-1.276-.428-2.058 0-.783.142-1.472.428-2.069.288-.6.689-1.067 1.203-1.402.517-.338 1.12-.507 1.81-.507.397 0 .79.067 1.178.2.387.132.74.347 1.059.645.318.295.571.687.76 1.174.189.487.284 1.087.284 1.8v.496H58.55v-1.014h4.693c0-.43-.086-.815-.258-1.153a1.948 1.948 0 0 0-.726-.8c-.312-.196-.68-.294-1.104-.294-.467 0-.871.116-1.213.348a2.29 2.29 0 0 0-.78.895 2.63 2.63 0 0 0-.274 1.183v.677c0 .576.1 1.065.298 1.466.203.398.483.701.84.91.359.205.775.308 1.249.308.308 0 .586-.043.835-.13a1.77 1.77 0 0 0 .651-.397c.182-.179.323-.4.423-.666l1.133.318a2.52 2.52 0 0 1-.601 1.014c-.282.289-.63.514-1.044.677-.415.158-.88.238-1.397.238Zm5.616-7.796 1.83 3.122 1.83-3.122h1.352l-2.466 3.818L71.904 78H70.55l-1.83-2.963L66.893 78H65.54l2.426-3.818-2.426-3.818h1.352Zm6.686 10.5v-10.5h1.133v1.213h.14c.086-.133.205-.302.358-.507.155-.21.377-.395.666-.557.291-.166.686-.249 1.183-.249.643 0 1.21.161 1.7.482.49.322.874.778 1.149 1.368.275.59.412 1.286.412 2.088 0 .808-.137 1.51-.412 2.103-.275.59-.657 1.047-1.144 1.372-.487.321-1.049.482-1.685.482-.49 0-.883-.081-1.178-.244a2.184 2.184 0 0 1-.682-.561 7.527 7.527 0 0 1-.368-.527h-.099v4.037h-1.173Zm1.153-6.682c0 .576.085 1.085.254 1.526.169.438.416.78.74 1.03.325.245.723.367 1.194.367.49 0 .9-.13 1.228-.388a2.37 2.37 0 0 0 .745-1.054c.17-.444.254-.938.254-1.481 0-.537-.083-1.021-.249-1.452a2.243 2.243 0 0 0-.74-1.029c-.328-.255-.741-.383-1.238-.383-.478 0-.879.121-1.203.363-.325.239-.57.573-.736 1.004-.166.428-.249.927-.249 1.497Zm10.48 3.977c-.69 0-1.294-.164-1.814-.492a3.344 3.344 0 0 1-1.213-1.377c-.289-.59-.433-1.28-.433-2.068 0-.796.144-1.49.433-2.084a3.337 3.337 0 0 1 1.213-1.382c.52-.328 1.125-.492 1.814-.492.69 0 1.293.164 1.81.492.52.329.925.79 1.213 1.382.292.594.438 1.288.438 2.084 0 .788-.146 1.478-.438 2.068a3.298 3.298 0 0 1-1.213 1.377c-.517.328-1.12.492-1.81.492Zm0-1.054c.524 0 .955-.134 1.293-.403.338-.268.588-.621.75-1.058.163-.438.244-.912.244-1.422 0-.51-.081-.986-.243-1.427a2.404 2.404 0 0 0-.751-1.07c-.338-.27-.769-.407-1.293-.407-.523 0-.954.136-1.292.408a2.404 2.404 0 0 0-.751 1.069 4.1 4.1 0 0 0-.244 1.427c0 .51.082.984.244 1.422.162.437.413.79.75 1.058.339.269.77.403 1.293.403Zm5.252.895v-7.636h1.133v1.153h.08c.139-.378.39-.684.755-.92a2.225 2.225 0 0 1 1.233-.353c.086 0 .194.002.323.005.13.004.227.009.294.015v1.193a3.667 3.667 0 0 0-.274-.044 2.691 2.691 0 0 0-.442-.035 2.08 2.08 0 0 0-.995.234 1.762 1.762 0 0 0-.686.636 1.715 1.715 0 0 0-.248.92V78h-1.173Zm9.008-7.636v.994h-3.957v-.994h3.957Zm-2.804-1.83h1.173v7.278c0 .332.048.58.145.746a.74.74 0 0 0 .377.328c.156.053.32.08.493.08.129 0 .235-.007.318-.02l.199-.04.238 1.054c-.08.03-.19.06-.333.09a2.45 2.45 0 0 1-.542.05 2.37 2.37 0 0 1-.974-.214 1.937 1.937 0 0 1-.786-.652c-.205-.291-.308-.66-.308-1.103v-7.597Zm9.841 3.54-1.054.298a1.955 1.955 0 0 0-.293-.512 1.421 1.421 0 0 0-.517-.418c-.219-.109-.499-.164-.84-.164-.468 0-.857.108-1.169.324-.308.212-.462.482-.462.81 0 .292.106.522.318.691.212.169.544.31.995.423l1.133.278c.683.166 1.192.42 1.526.76.335.339.503.775.503 1.308 0 .438-.126.829-.378 1.174-.249.344-.597.616-1.044.815-.448.199-.968.298-1.561.298-.779 0-1.424-.169-1.934-.507-.511-.338-.834-.832-.97-1.481l1.114-.279c.106.411.306.72.601.925.299.205.688.308 1.169.308.547 0 .981-.116 1.302-.348.325-.235.487-.517.487-.845a.886.886 0 0 0-.278-.666c-.186-.183-.471-.319-.855-.408l-1.273-.298c-.699-.166-1.213-.423-1.541-.77-.325-.352-.487-.791-.487-1.318 0-.431.121-.812.363-1.144a2.47 2.47 0 0 1 .999-.78 3.51 3.51 0 0 1 1.442-.284c.755 0 1.349.166 1.78.497.434.332.742.77.924 1.313Zm2.761 6.005a.864.864 0 0 1-.632-.263.864.864 0 0 1-.263-.631c0-.246.088-.456.263-.632a.863.863 0 0 1 .632-.263.86.86 0 0 1 .631.263.86.86 0 0 1 .264.632.842.842 0 0 1-.125.447.922.922 0 0 1-.323.328.849.849 0 0 1-.447.12Zm57.14-4.99v-1.075h6.125v1.074h-6.125Zm0 2.942v-1.074h6.125v1.074h-6.125Zm110.19-2.327c0-1.252.162-2.404.487-3.455a10.791 10.791 0 0 1 1.402-2.908h1.034a6.45 6.45 0 0 0-.671 1.213 11.929 11.929 0 0 0-.542 1.576c-.156.57-.278 1.16-.368 1.77-.086.61-.129 1.211-.129 1.804 0 .79.076 1.59.229 2.402.152.812.358 1.566.616 2.262.259.696.547 1.263.865 1.7h-1.034a10.81 10.81 0 0 1-1.402-2.903c-.325-1.054-.487-2.208-.487-3.46Zm4.098.02v-.616c.553 0 .939-.116 1.158-.348.222-.232.333-.62.333-1.163v-1.591c0-.458.043-.854.129-1.189a1.97 1.97 0 0 1 .433-.83c.199-.218.464-.38.795-.487.332-.106.741-.16 1.228-.16v.975c-.384 0-.687.06-.909.18a1 1 0 0 0-.468.556c-.089.249-.134.567-.134.955v1.988c0 .259-.035.494-.104.706a1.16 1.16 0 0 1-.373.547c-.182.153-.443.27-.781.353-.334.083-.77.124-1.307.124Zm4.076 6.344c-.487 0-.896-.053-1.228-.159a1.784 1.784 0 0 1-.795-.487 1.97 1.97 0 0 1-.433-.83 4.817 4.817 0 0 1-.129-1.189v-1.59c0-.544-.111-.932-.333-1.164-.219-.232-.605-.348-1.158-.348v-.616c.537 0 .973.041 1.307.124.338.083.599.2.781.353.182.152.306.335.373.547.069.212.104.447.104.706v1.988c0 .388.045.706.134.955.093.248.249.432.468.552.222.122.525.184.909.184v.974Zm-4.076-5.767v-1.193h1.173v1.193h-1.173Zm12.768 3.858c-.736 0-1.37-.162-1.904-.487a3.27 3.27 0 0 1-1.228-1.372c-.285-.59-.428-1.276-.428-2.058 0-.783.143-1.472.428-2.069.288-.6.689-1.067 1.203-1.402.517-.338 1.12-.507 1.81-.507.397 0 .79.067 1.178.2.388.132.741.347 1.059.645.318.295.572.687.761 1.174.188.487.283 1.087.283 1.8v.496h-5.886v-1.014h4.693c0-.43-.086-.815-.259-1.153a1.948 1.948 0 0 0-.726-.8c-.311-.196-.679-.294-1.103-.294-.468 0-.872.116-1.213.348a2.289 2.289 0 0 0-.781.895 2.632 2.632 0 0 0-.273 1.183v.677c0 .576.099 1.065.298 1.466.202.398.482.701.84.91.358.205.774.308 1.248.308.308 0 .587-.043.835-.13.252-.089.469-.221.652-.397.182-.179.323-.4.422-.666l1.134.318a2.51 2.51 0 0 1-.602 1.014c-.282.289-.63.514-1.044.677-.414.158-.88.238-1.397.238Zm6.12-4.753V78h-1.173v-7.636h1.133v1.193h.1c.179-.388.45-.7.815-.935.365-.239.835-.358 1.412-.358.517 0 .969.106 1.357.318.388.21.69.527.905.955.215.424.323.961.323 1.61V78h-1.173v-4.773c0-.6-.156-1.067-.467-1.402-.312-.338-.74-.507-1.283-.507-.375 0-.709.081-1.004.244a1.74 1.74 0 0 0-.691.71c-.169.312-.254.69-.254 1.134Zm10.118 4.753c-.715 0-1.332-.169-1.849-.507a3.302 3.302 0 0 1-1.193-1.397c-.279-.593-.418-1.271-.418-2.033 0-.776.143-1.46.428-2.054a3.375 3.375 0 0 1 1.203-1.397c.517-.338 1.12-.507 1.81-.507.537 0 1.02.1 1.451.299a2.78 2.78 0 0 1 1.059.835 2.6 2.6 0 0 1 .512 1.253h-1.173c-.089-.348-.288-.657-.597-.925-.304-.272-.715-.408-1.233-.408-.457 0-.858.12-1.203.358-.341.236-.608.569-.8 1-.189.427-.283.93-.283 1.506 0 .59.092 1.103.278 1.541.189.438.454.777.795 1.02.345.241.749.362 1.213.362a2.1 2.1 0 0 0 .831-.159 1.71 1.71 0 0 0 .631-.457c.172-.2.295-.438.368-.716h1.173a2.713 2.713 0 0 1-1.521 2.073c-.424.209-.918.313-1.482.313Zm4.719-.159v-7.636h1.133v1.153h.08c.139-.378.391-.684.755-.92a2.227 2.227 0 0 1 1.233-.353c.086 0 .194.002.323.005.13.004.227.009.294.015v1.193a3.46 3.46 0 0 0-.274-.044 2.681 2.681 0 0 0-.442-.035 2.08 2.08 0 0 0-.995.234 1.765 1.765 0 0 0-.686.636 1.72 1.72 0 0 0-.248.92V78h-1.173Zm6.197 2.864a2.56 2.56 0 0 1-.532-.05 1.41 1.41 0 0 1-.324-.09l.299-1.034c.285.073.537.1.755.08a.906.906 0 0 0 .582-.293c.172-.173.33-.453.472-.84l.219-.597-2.824-7.676h1.273l2.108 6.085h.08l2.108-6.085h1.272l-3.241 8.75c-.146.394-.327.72-.542.979a2.035 2.035 0 0 1-.751.582c-.282.126-.6.189-.954.189Zm7.037 0v-10.5h1.133v1.213h.14a9.98 9.98 0 0 1 .358-.507c.155-.21.377-.395.666-.557.291-.166.686-.249 1.183-.249.643 0 1.21.161 1.7.482.491.322.874.778 1.149 1.368.275.59.412 1.286.412 2.088 0 .808-.137 1.51-.412 2.103-.275.59-.657 1.047-1.144 1.372-.487.321-1.049.482-1.685.482-.491 0-.883-.081-1.178-.244a2.182 2.182 0 0 1-.681-.561 7.174 7.174 0 0 1-.368-.527h-.1v4.037h-1.173Zm1.153-6.682c0 .576.085 1.085.254 1.526.169.438.416.78.741 1.03.324.245.722.367 1.193.367.49 0 .9-.13 1.228-.388.331-.261.58-.613.746-1.054.169-.444.253-.938.253-1.481 0-.537-.083-1.021-.249-1.452a2.242 2.242 0 0 0-.74-1.029c-.328-.255-.741-.383-1.238-.383-.477 0-.879.121-1.203.363-.325.239-.57.573-.736 1.004-.166.428-.249.927-.249 1.497Zm10.699-3.818v.994h-3.957v-.994h3.957Zm-2.804-1.83h1.173v7.278c0 .332.049.58.145.746a.744.744 0 0 0 .378.328c.155.053.319.08.492.08.129 0 .235-.007.318-.02l.199-.04.238 1.054c-.079.03-.19.06-.333.09-.142.033-.323.05-.542.05a2.36 2.36 0 0 1-.974-.214 1.939 1.939 0 0 1-.786-.652c-.205-.291-.308-.66-.308-1.103v-7.597Zm7.689 9.625c-.736 0-1.371-.162-1.904-.487a3.263 3.263 0 0 1-1.228-1.372c-.285-.59-.428-1.276-.428-2.058 0-.783.143-1.472.428-2.069.288-.6.689-1.067 1.203-1.402.517-.338 1.12-.507 1.809-.507.398 0 .791.067 1.179.2.387.132.74.347 1.059.645.318.295.571.687.76 1.174.189.487.284 1.087.284 1.8v.496h-5.887v-1.014h4.694c0-.43-.087-.815-.259-1.153a1.948 1.948 0 0 0-.726-.8c-.311-.196-.679-.294-1.104-.294-.467 0-.871.116-1.213.348a2.286 2.286 0 0 0-.78.895 2.633 2.633 0 0 0-.274 1.183v.677c0 .576.1 1.065.299 1.466.202.398.482.701.84.91.358.205.774.308 1.248.308.308 0 .586-.043.835-.13a1.77 1.77 0 0 0 .651-.397c.183-.179.323-.4.423-.666l1.133.318a2.505 2.505 0 0 1-.601 1.014c-.282.289-.63.514-1.044.677-.415.158-.88.238-1.397.238Zm7.83 0c-.636 0-1.198-.16-1.685-.482-.488-.325-.869-.782-1.144-1.372-.275-.594-.412-1.295-.412-2.103 0-.802.137-1.498.412-2.088.275-.59.658-1.046 1.149-1.368.49-.321 1.057-.482 1.7-.482.497 0 .89.083 1.178.249.292.162.514.348.666.557.156.205.277.374.363.507h.1v-3.759h1.173V78h-1.134v-1.173h-.139a7.5 7.5 0 0 1-.368.527 2.182 2.182 0 0 1-.681.561c-.295.163-.687.244-1.178.244Zm.159-1.054c.471 0 .868-.123 1.193-.368.325-.248.572-.591.741-1.029.169-.44.254-.95.254-1.526 0-.57-.083-1.07-.249-1.497-.166-.43-.411-.765-.736-1.004-.325-.242-.726-.363-1.203-.363-.497 0-.911.128-1.243.383a2.295 2.295 0 0 0-.741 1.03 4.1 4.1 0 0 0-.243 1.45c0 .544.083 1.038.248 1.482.169.441.418.793.746 1.054.332.259.743.388 1.233.388Zm13.07-3.42v.616c-.553 0-.941.116-1.163.348-.219.232-.328.62-.328 1.163v1.591c0 .458-.045.854-.134 1.189a1.92 1.92 0 0 1-.428.83 1.784 1.784 0 0 1-.795.487c-.332.106-.741.16-1.228.16v-.975c.384 0 .686-.062.905-.184a.98.98 0 0 0 .467-.552c.093-.249.139-.567.139-.955v-1.988c0-.259.033-.494.1-.706.069-.212.195-.395.377-.547.183-.153.441-.27.776-.353.338-.083.775-.124 1.312-.124Zm-4.076-6.344c.487 0 .896.053 1.228.159.331.106.596.269.795.487.199.219.342.496.428.83.089.335.134.731.134 1.189v1.59c0 .544.109.932.328 1.164.222.232.61.348 1.163.348v.616c-.537 0-.974-.041-1.312-.124-.335-.083-.593-.2-.776-.353a1.183 1.183 0 0 1-.377-.547 2.337 2.337 0 0 1-.1-.706v-1.988c0-.388-.046-.706-.139-.955a.98.98 0 0 0-.467-.557c-.219-.119-.521-.179-.905-.179v-.974Zm4.076 5.767v1.193h-1.173v-1.193h1.173Zm4.098.596c0 1.253-.164 2.407-.492 3.46a10.678 10.678 0 0 1-1.397 2.904h-1.034a6.18 6.18 0 0 0 .666-1.213c.209-.477.391-1 .547-1.57.156-.574.277-1.166.363-1.776.089-.613.134-1.215.134-1.805 0-.788-.076-1.589-.229-2.4a13.714 13.714 0 0 0-.616-2.263c-.259-.696-.547-1.263-.865-1.7h1.034a10.66 10.66 0 0 1 1.397 2.908c.328 1.051.492 2.203.492 3.456Zm2.01.02v-.616c.554 0 .94-.116 1.158-.348.222-.232.333-.62.333-1.163v-1.591c0-.458.044-.854.13-1.189.089-.334.233-.611.432-.83.199-.218.464-.38.796-.487.331-.106.741-.16 1.228-.16v.975c-.385 0-.688.06-.91.18a.998.998 0 0 0-.467.556c-.09.249-.135.567-.135.955v1.988c0 .259-.034.494-.104.706a1.153 1.153 0 0 1-.373.547c-.182.153-.442.27-.78.353-.335.083-.771.124-1.308.124Zm4.077 6.344c-.487 0-.897-.053-1.228-.159a1.782 1.782 0 0 1-.796-.487 1.957 1.957 0 0 1-.432-.83 4.813 4.813 0 0 1-.13-1.189v-1.59c0-.544-.111-.932-.333-1.164-.218-.232-.604-.348-1.158-.348v-.616c.537 0 .973.041 1.308.124.338.083.598.2.78.353.182.152.307.335.373.547.07.212.104.447.104.706v1.988c0 .388.045.706.135.955a1 1 0 0 0 .467.552c.222.122.525.184.91.184v.974Zm-4.077-5.767v-1.193h1.173v1.193h-1.173Zm-265.467 26.423v-.616c.554 0 .94-.116 1.159-.348.222-.232.333-.62.333-1.163v-1.591c0-.458.043-.854.129-1.189.089-.334.234-.611.432-.83.199-.218.464-.38.796-.487.331-.106.741-.16 1.228-.16v.975c-.385 0-.688.06-.91.18a1 1 0 0 0-.467.556c-.09.249-.134.567-.134.955v1.988c0 .259-.035.494-.105.706-.066.212-.19.395-.373.547-.182.153-.442.27-.78.353-.335.083-.771.124-1.308.124Zm4.077 6.344c-.487 0-.897-.053-1.228-.159a1.779 1.779 0 0 1-.796-.487 1.973 1.973 0 0 1-.432-.83 4.822 4.822 0 0 1-.129-1.189v-1.591c0-.543-.111-.931-.333-1.163-.219-.232-.605-.348-1.159-.348v-.616c.537 0 .973.041 1.308.124.338.083.598.2.78.353.183.152.307.335.373.547.07.212.105.447.105.706v1.988c0 .388.044.706.134.955.093.249.248.432.467.552.222.122.525.184.91.184v.974Zm-4.077-5.767v-1.193h1.174v1.193h-1.174Zm12.669 3.858c-.716 0-1.332-.169-1.849-.507a3.312 3.312 0 0 1-1.194-1.397c-.278-.593-.417-1.271-.417-2.033 0-.776.142-1.46.427-2.054a3.384 3.384 0 0 1 1.204-1.397c.517-.338 1.12-.507 1.809-.507.537 0 1.021.1 1.452.299a2.78 2.78 0 0 1 1.059.835 2.6 2.6 0 0 1 .512 1.253h-1.173a1.824 1.824 0 0 0-.597-.925c-.305-.272-.716-.408-1.233-.408-.457 0-.858.12-1.203.358-.341.236-.608.569-.8 1-.189.427-.284.929-.284 1.506 0 .59.093 1.104.279 1.541.188.438.454.777.795 1.019.345.242.749.363 1.213.363.305 0 .582-.053.83-.159.249-.106.459-.258.632-.457.172-.199.295-.438.368-.716h1.173a2.72 2.72 0 0 1-.492 1.218 2.756 2.756 0 0 1-1.029.855c-.425.209-.918.313-1.482.313Zm6.965.02c-.484 0-.923-.091-1.317-.273a2.263 2.263 0 0 1-.94-.801c-.232-.351-.348-.775-.348-1.273 0-.437.086-.792.259-1.064a1.82 1.82 0 0 1 .691-.646c.288-.156.606-.272.954-.348.352-.079.705-.142 1.059-.189.464-.059.84-.104 1.129-.134.291-.033.504-.088.636-.164.136-.076.204-.209.204-.398v-.04c0-.49-.134-.871-.403-1.143-.265-.272-.668-.408-1.208-.408-.56 0-.999.123-1.317.368-.318.246-.542.507-.671.786l-1.114-.398c.199-.464.464-.825.795-1.084.335-.262.7-.444 1.094-.547a4.546 4.546 0 0 1 1.173-.159c.246 0 .527.03.846.09.321.056.631.174.929.353.302.179.552.449.751.81.199.361.298.845.298 1.452V105h-1.173v-1.034h-.06a2.059 2.059 0 0 1-.397.532c-.186.189-.433.35-.741.482-.308.133-.685.199-1.129.199Zm.179-1.054c.464 0 .855-.091 1.174-.273a1.867 1.867 0 0 0 .974-1.616v-1.074c-.05.06-.159.114-.328.164a5.534 5.534 0 0 1-.577.124c-.215.033-.426.063-.631.09-.202.023-.366.043-.492.059a4.56 4.56 0 0 0-.856.194 1.471 1.471 0 0 0-.636.393c-.159.172-.239.408-.239.706 0 .408.151.716.453.925.305.205.691.308 1.158.308Zm5.463.875v-7.636h1.133v1.153h.08c.139-.378.391-.684.756-.92a2.22 2.22 0 0 1 1.232-.353c.087 0 .194.002.324.005.129.004.227.009.293.015v1.193a3.492 3.492 0 0 0-.273-.044 2.703 2.703 0 0 0-.443-.035c-.371 0-.703.078-.994.234a1.713 1.713 0 0 0-.935 1.556V105h-1.173Zm7.86.159c-.636 0-1.198-.161-1.685-.482-.488-.325-.869-.782-1.144-1.372-.275-.594-.413-1.295-.413-2.103 0-.802.138-1.498.413-2.088.275-.59.658-1.046 1.148-1.368.491-.321 1.058-.482 1.701-.482.497 0 .89.083 1.178.249.292.162.514.348.666.557.156.205.277.374.363.507h.1v-3.759h1.173V105h-1.134v-1.173h-.139a7.523 7.523 0 0 1-.368.527 2.182 2.182 0 0 1-.681.561c-.295.163-.688.244-1.178.244Zm.159-1.054c.471 0 .868-.123 1.193-.368.325-.248.572-.591.741-1.029.169-.441.253-.949.253-1.526 0-.57-.082-1.069-.248-1.497-.166-.43-.411-.765-.736-1.004-.325-.242-.726-.363-1.203-.363-.497 0-.911.128-1.243.383a2.295 2.295 0 0 0-.741 1.03c-.162.43-.243.914-.243 1.451 0 .543.083 1.037.248 1.481.169.441.418.792.746 1.054.331.259.742.388 1.233.388Zm13.886-9.287V105h-1.194l-5.548-7.994h-.099V105H145.2V94.818h1.193l5.568 8.014h.1v-8.014h1.213Zm7.12 7.06v-4.514h1.173V105h-1.173v-1.293h-.079a2.508 2.508 0 0 1-.836.99c-.377.268-.855.402-1.431.402-.478 0-.902-.104-1.273-.313a2.192 2.192 0 0 1-.875-.954c-.212-.428-.318-.966-.318-1.616v-4.852h1.173v4.772c0 .557.156 1.001.467 1.333.315.331.716.497 1.203.497.292 0 .589-.075.89-.224.305-.149.56-.378.766-.686.209-.308.313-.701.313-1.178Zm3.322 3.122v-7.636h1.134v1.193h.099a1.92 1.92 0 0 1 .771-.95c.355-.228.781-.343 1.278-.343.503 0 .923.115 1.258.343.338.226.601.542.79.95h.08c.195-.395.488-.708.88-.94.391-.235.86-.353 1.406-.353.683 0 1.242.214 1.676.642.434.424.651 1.085.651 1.983V105h-1.173v-5.11c0-.564-.154-.967-.462-1.209a1.715 1.715 0 0 0-1.089-.363c-.537 0-.953.163-1.248.487-.295.322-.443.73-.443 1.223V105h-1.193v-5.23c0-.434-.141-.784-.422-1.05-.282-.268-.645-.402-1.089-.402-.305 0-.59.081-.855.244a1.845 1.845 0 0 0-.637.676 1.997 1.997 0 0 0-.238.989V105h-1.174Zm12.328 0V94.818h1.173v3.759h.099c.086-.133.206-.302.358-.507.156-.21.378-.395.666-.557.292-.166.686-.249 1.184-.249.643 0 1.209.161 1.7.482.49.322.873.778 1.148 1.368.275.59.413 1.286.413 2.088 0 .808-.138 1.509-.413 2.103-.275.59-.656 1.047-1.143 1.372-.487.321-1.049.482-1.685.482-.491 0-.884-.081-1.179-.244a2.182 2.182 0 0 1-.681-.561 7.523 7.523 0 0 1-.368-.527h-.139V105h-1.133Zm1.153-3.818c0 .577.084 1.085.253 1.526.169.438.416.781.741 1.029.325.245.723.368 1.193.368.491 0 .9-.129 1.228-.388a2.37 2.37 0 0 0 .746-1.054c.169-.444.254-.938.254-1.481 0-.537-.083-1.021-.249-1.452a2.237 2.237 0 0 0-.741-1.029c-.328-.255-.74-.383-1.238-.383-.477 0-.878.121-1.203.363-.325.239-.57.573-.736 1.004-.165.428-.248.927-.248 1.497Zm10.584 3.977c-.735 0-1.37-.162-1.904-.487a3.28 3.28 0 0 1-1.228-1.372c-.285-.59-.427-1.276-.427-2.059 0-.782.142-1.471.427-2.068.289-.6.69-1.067 1.203-1.402.517-.338 1.121-.507 1.81-.507.398 0 .791.067 1.178.2.388.132.741.347 1.059.645.319.295.572.687.761 1.174.189.487.283 1.087.283 1.799v.498h-5.886v-1.015h4.693c0-.431-.086-.815-.258-1.153a1.948 1.948 0 0 0-.726-.8c-.312-.196-.68-.294-1.104-.294-.467 0-.872.116-1.213.348a2.286 2.286 0 0 0-.78.895 2.619 2.619 0 0 0-.274 1.183v.676c0 .577.099 1.066.298 1.467.203.398.483.701.841.91.358.205.773.308 1.247.308.309 0 .587-.043.836-.129.252-.09.469-.222.651-.398a1.82 1.82 0 0 0 .423-.666l1.133.318c-.119.385-.32.723-.602 1.014a2.905 2.905 0 0 1-1.044.676c-.414.16-.88.239-1.397.239Zm4.947-.159v-7.636h1.134v1.153h.079c.139-.378.391-.684.756-.92a2.222 2.222 0 0 1 1.233-.353c.086 0 .194.002.323.005.129.004.227.009.293.015v1.193a3.404 3.404 0 0 0-.273-.044 2.694 2.694 0 0 0-.443-.035c-.371 0-.702.078-.994.234a1.713 1.713 0 0 0-.935 1.556V105h-1.173Zm12.627-4.315v.616c-.554 0-.942.116-1.164.348-.218.232-.328.62-.328 1.163v1.591c0 .458-.044.854-.134 1.189a1.924 1.924 0 0 1-.428.83 1.775 1.775 0 0 1-.795.487c-.331.106-.741.159-1.228.159v-.974c.385 0 .686-.062.905-.184a.977.977 0 0 0 .467-.552c.093-.249.139-.567.139-.955v-1.988c0-.259.034-.494.1-.706.069-.212.195-.395.378-.547.182-.153.441-.27.775-.353.338-.083.776-.124 1.313-.124Zm-4.077-6.344c.487 0 .897.053 1.228.159.331.106.597.269.795.487.199.219.342.496.428.83.09.335.134.731.134 1.189v1.59c0 .544.11.932.328 1.164.222.232.61.348 1.164.348v.616c-.537 0-.975-.041-1.313-.124-.334-.083-.593-.2-.775-.353a1.175 1.175 0 0 1-.378-.547 2.369 2.369 0 0 1-.1-.706v-1.988c0-.388-.046-.706-.139-.955a.976.976 0 0 0-.467-.557c-.219-.119-.52-.179-.905-.179v-.974Zm4.077 5.767v1.193h-1.174v-1.193h1.174Zm6.007-.02v-1.074h6.125v1.074h-6.125Zm0 2.943v-1.074h6.125v1.074h-6.125Zm15.89 2.128c-.736 0-1.37-.162-1.904-.487a3.273 3.273 0 0 1-1.228-1.372c-.285-.59-.428-1.276-.428-2.059 0-.782.143-1.471.428-2.068.288-.6.689-1.067 1.203-1.402.517-.338 1.12-.507 1.81-.507.398 0 .79.067 1.178.2.388.132.741.347 1.059.645.318.295.572.687.761 1.174.189.487.283 1.087.283 1.799v.498h-5.886v-1.015h4.693c0-.431-.086-.815-.259-1.153a1.952 1.952 0 0 0-.725-.8c-.312-.196-.68-.294-1.104-.294-.468 0-.872.116-1.213.348a2.289 2.289 0 0 0-.781.895 2.63 2.63 0 0 0-.273 1.183v.676c0 .577.099 1.066.298 1.467.202.398.482.701.84.91.358.205.774.308 1.248.308.308 0 .587-.043.835-.129.252-.09.469-.222.652-.398.182-.179.323-.401.422-.666l1.134.318a2.51 2.51 0 0 1-.602 1.014c-.282.289-.63.514-1.044.676-.414.16-.88.239-1.397.239Zm6.12-4.753V105h-1.173v-7.636h1.133v1.193h.1c.179-.388.451-.7.815-.935.365-.239.835-.358 1.412-.358.517 0 .97.106 1.357.318.388.21.69.527.905.955.216.424.323.961.323 1.611V105h-1.173v-4.773c0-.6-.156-1.067-.467-1.402-.312-.338-.739-.507-1.283-.507-.375 0-.709.081-1.004.244a1.74 1.74 0 0 0-.691.71c-.169.312-.254.69-.254 1.134Zm10.119 4.753c-.716 0-1.333-.169-1.85-.507a3.303 3.303 0 0 1-1.193-1.397c-.278-.593-.418-1.271-.418-2.033 0-.776.143-1.46.428-2.054a3.375 3.375 0 0 1 1.203-1.397c.517-.338 1.12-.507 1.81-.507.537 0 1.021.1 1.451.299a2.78 2.78 0 0 1 1.059.835 2.6 2.6 0 0 1 .512 1.253h-1.173c-.089-.348-.288-.657-.596-.925-.305-.272-.716-.408-1.233-.408-.458 0-.859.12-1.204.358-.341.236-.608.569-.8 1-.189.427-.283.929-.283 1.506 0 .59.092 1.104.278 1.541.189.438.454.777.796 1.019.344.242.749.363 1.213.363.305 0 .581-.053.83-.159a1.71 1.71 0 0 0 .631-.457 1.75 1.75 0 0 0 .368-.716h1.173a2.72 2.72 0 0 1-.492 1.218 2.74 2.74 0 0 1-1.029.855c-.424.209-.918.313-1.481.313Zm4.718-.159v-7.636h1.133v1.153h.08c.139-.378.391-.684.755-.92a2.227 2.227 0 0 1 1.233-.353c.087 0 .194.002.323.005.13.004.228.009.294.015v1.193a3.46 3.46 0 0 0-.274-.044 2.681 2.681 0 0 0-.442-.035c-.371 0-.703.078-.994.234a1.713 1.713 0 0 0-.935 1.556V105h-1.173Zm6.197 2.864a2.58 2.58 0 0 1-.532-.05 1.382 1.382 0 0 1-.323-.09l.298-1.034c.285.073.537.1.756.08a.909.909 0 0 0 .581-.293c.173-.173.33-.453.473-.841l.218-.596-2.824-7.676h1.273l2.108 6.085h.08l2.108-6.085h1.272l-3.241 8.75a3.32 3.32 0 0 1-.542.979 2.028 2.028 0 0 1-.751.582c-.281.126-.6.189-.954.189Zm7.037 0v-10.5h1.134v1.213h.139a9.98 9.98 0 0 1 .358-.507c.155-.21.378-.395.666-.557.292-.166.686-.249 1.183-.249.643 0 1.21.161 1.7.482.491.322.874.778 1.149 1.368.275.59.412 1.286.412 2.088 0 .808-.137 1.509-.412 2.103-.275.59-.656 1.047-1.144 1.372-.487.321-1.049.482-1.685.482-.491 0-.883-.081-1.178-.244a2.182 2.182 0 0 1-.681-.561 7.523 7.523 0 0 1-.368-.527h-.1v4.037h-1.173Zm1.153-6.682c0 .577.085 1.085.254 1.526.169.438.416.781.741 1.029.325.245.722.368 1.193.368.49 0 .9-.129 1.228-.388.331-.262.58-.613.746-1.054.169-.444.253-.938.253-1.481 0-.537-.083-1.021-.248-1.452a2.25 2.25 0 0 0-.741-1.029c-.328-.255-.741-.383-1.238-.383-.477 0-.878.121-1.203.363-.325.239-.57.573-.736 1.004-.166.428-.249.927-.249 1.497Zm10.699-3.818v.994h-3.957v-.994h3.957Zm-2.804-1.83h1.174v7.278c0 .332.048.581.144.746a.739.739 0 0 0 .378.328c.155.053.319.08.492.08.129 0 .235-.007.318-.02l.199-.04.238 1.054c-.079.03-.19.06-.333.09a2.463 2.463 0 0 1-.542.049c-.331 0-.656-.071-.974-.213a1.931 1.931 0 0 1-.785-.652c-.206-.291-.309-.659-.309-1.103v-7.597Zm7.689 9.625c-.736 0-1.371-.162-1.904-.487a3.266 3.266 0 0 1-1.228-1.372c-.285-.59-.428-1.276-.428-2.059 0-.782.143-1.471.428-2.068.288-.6.689-1.067 1.203-1.402.517-.338 1.12-.507 1.81-.507.397 0 .79.067 1.178.2.388.132.741.347 1.059.645.318.295.571.687.76 1.174.189.487.284 1.087.284 1.799v.498h-5.887v-1.015h4.694c0-.431-.087-.815-.259-1.153a1.948 1.948 0 0 0-.726-.8c-.311-.196-.679-.294-1.103-.294-.468 0-.872.116-1.214.348a2.286 2.286 0 0 0-.78.895 2.63 2.63 0 0 0-.273 1.183v.676c0 .577.099 1.066.298 1.467.202.398.482.701.84.91.358.205.774.308 1.248.308.308 0 .587-.043.835-.129.252-.09.469-.222.651-.398.183-.179.324-.401.423-.666l1.133.318a2.497 2.497 0 0 1-.601 1.014c-.282.289-.63.514-1.044.676-.414.16-.88.239-1.397.239Zm7.83 0c-.636 0-1.198-.161-1.685-.482-.487-.325-.869-.782-1.144-1.372-.275-.594-.412-1.295-.412-2.103 0-.802.137-1.498.412-2.088.275-.59.658-1.046 1.149-1.368.49-.321 1.057-.482 1.7-.482.497 0 .89.083 1.178.249.292.162.514.348.666.557.156.205.277.374.363.507h.1v-3.759h1.173V105h-1.133v-1.173h-.14a7.195 7.195 0 0 1-.368.527 2.182 2.182 0 0 1-.681.561c-.295.163-.687.244-1.178.244Zm.159-1.054c.471 0 .869-.123 1.193-.368.325-.248.572-.591.741-1.029.169-.441.254-.949.254-1.526 0-.57-.083-1.069-.249-1.497-.166-.43-.411-.765-.736-1.004-.324-.242-.726-.363-1.203-.363-.497 0-.911.128-1.243.383a2.286 2.286 0 0 0-.74 1.03 4.07 4.07 0 0 0-.244 1.451c0 .543.083 1.037.249 1.481.169.441.417.792.745 1.054.332.259.743.388 1.233.388Zm7.403-.497-.08.537c-.056.378-.142.782-.258 1.213-.113.431-.231.837-.353 1.218-.123.381-.224.684-.303.91h-.895l.169-.84c.069-.348.139-.738.209-1.169.072-.427.132-.865.179-1.312l.059-.557h1.273Zm-.716-4.196a.86.86 0 0 1-.631-.264.86.86 0 0 1-.264-.631.86.86 0 0 1 .264-.631.86.86 0 0 1 .631-.264.86.86 0 0 1 .631.264.86.86 0 0 1 .264.631.85.85 0 0 1-.124.448.933.933 0 0 1-.324.328.849.849 0 0 1-.447.119Zm-180.123 32.747c-.716 0-1.333-.169-1.85-.507a3.31 3.31 0 0 1-1.193-1.397c-.278-.593-.417-1.271-.417-2.033 0-.776.142-1.46.427-2.054a3.387 3.387 0 0 1 1.203-1.397c.517-.338 1.12-.507 1.81-.507.537 0 1.021.1 1.452.298.43.199.783.478 1.059.836.275.358.445.775.512 1.253h-1.174c-.089-.348-.288-.657-.596-.925-.305-.272-.716-.408-1.233-.408-.458 0-.859.119-1.203.358-.342.235-.609.569-.801.999-.189.428-.283.93-.283 1.507 0 .59.093 1.104.278 1.541.189.438.454.777.796 1.019.344.242.749.363 1.213.363.305 0 .581-.053.83-.159a1.702 1.702 0 0 0 .999-1.173h1.174c-.067.45-.231.856-.493 1.218a2.74 2.74 0 0 1-1.029.855c-.424.209-.918.313-1.481.313Zm6.965.02c-.484 0-.923-.091-1.317-.273a2.263 2.263 0 0 1-.94-.801c-.232-.351-.348-.775-.348-1.273 0-.437.086-.792.258-1.064.173-.275.403-.49.691-.646.289-.156.607-.272.955-.348.351-.079.704-.142 1.059-.189.464-.059.84-.104 1.128-.134.292-.033.504-.088.637-.164.136-.076.204-.209.204-.398v-.04c0-.49-.135-.871-.403-1.143-.265-.272-.668-.408-1.208-.408-.56 0-.999.123-1.318.368-.318.245-.541.507-.671.786l-1.113-.398c.198-.464.464-.825.795-1.084a2.981 2.981 0 0 1 1.094-.547 4.546 4.546 0 0 1 1.173-.159c.245 0 .527.03.845.09.322.056.632.174.93.353.302.179.552.449.751.81.199.361.298.845.298 1.452V132h-1.173v-1.034h-.06c-.08.166-.212.343-.398.532-.185.189-.432.35-.74.482-.309.133-.685.199-1.129.199Zm.179-1.054c.464 0 .855-.091 1.173-.273a1.863 1.863 0 0 0 .975-1.616v-1.074c-.05.06-.159.114-.328.164a5.534 5.534 0 0 1-.577.124c-.216.033-.426.063-.632.09-.202.023-.366.043-.492.059-.305.04-.59.105-.855.194a1.465 1.465 0 0 0-.636.393c-.159.172-.239.408-.239.706 0 .408.151.716.453.925.304.205.691.308 1.158.308Zm5.462.875v-7.636h1.134v1.153h.08c.139-.378.391-.684.755-.92a2.229 2.229 0 0 1 1.233-.353c.086 0 .194.002.323.005.13.004.227.009.294.015v1.193a3.667 3.667 0 0 0-.274-.044 2.597 2.597 0 0 0-.442-.035 2.08 2.08 0 0 0-.995.234 1.759 1.759 0 0 0-.686.636 1.72 1.72 0 0 0-.248.92V132h-1.174Zm7.861.159c-.637 0-1.199-.161-1.686-.482-.487-.325-.868-.782-1.143-1.372-.275-.594-.413-1.295-.413-2.103 0-.802.138-1.498.413-2.088.275-.59.658-1.046 1.148-1.368.491-.321 1.057-.482 1.7-.482.498 0 .89.083 1.179.249.291.162.513.348.666.557.156.205.277.374.363.507h.099v-3.759h1.174V132h-1.134v-1.173h-.139a7.523 7.523 0 0 1-.368.527 2.182 2.182 0 0 1-.681.561c-.295.163-.688.244-1.178.244Zm.159-1.054c.47 0 .868-.123 1.193-.368.325-.248.572-.591.741-1.029.169-.441.253-.949.253-1.526 0-.57-.083-1.069-.248-1.497-.166-.431-.411-.765-.736-1.004-.325-.242-.726-.363-1.203-.363-.497 0-.912.128-1.243.383a2.296 2.296 0 0 0-.741 1.029 4.102 4.102 0 0 0-.244 1.452c0 .543.083 1.037.249 1.481.169.441.418.792.746 1.054.331.259.742.388 1.233.388Zm13.885-9.287V132h-1.193l-5.548-7.994h-.1V132h-1.233v-10.182h1.194l5.568 8.014h.099v-8.014h1.213Zm7.121 7.06v-4.514h1.173V132h-1.173v-1.293h-.08a2.505 2.505 0 0 1-.835.99c-.378.268-.855.402-1.432.402-.477 0-.901-.104-1.272-.313-.372-.212-.663-.53-.875-.954-.213-.428-.319-.966-.319-1.616v-4.852h1.174v4.772c0 .557.155 1.001.467 1.333.315.331.716.497 1.203.497a2 2 0 0 0 .89-.224c.305-.149.56-.378.766-.686.208-.308.313-.701.313-1.178Zm3.322 3.122v-7.636h1.134v1.193h.099a1.92 1.92 0 0 1 .771-.95c.354-.228.78-.343 1.277-.343.504 0 .923.115 1.258.343.338.226.602.542.791.95h.079c.196-.395.489-.708.88-.94.391-.235.86-.353 1.407-.353.683 0 1.241.214 1.676.642.434.424.651 1.085.651 1.983V132h-1.173v-5.111c0-.563-.155-.966-.463-1.208a1.71 1.71 0 0 0-1.089-.363c-.536 0-.952.163-1.247.487-.295.322-.443.73-.443 1.223V132h-1.193v-5.23c0-.434-.141-.784-.423-1.049-.281-.269-.644-.403-1.088-.403-.305 0-.59.081-.856.244a1.841 1.841 0 0 0-.636.676 1.997 1.997 0 0 0-.239.989V132h-1.173Zm12.327 0v-10.182h1.174v3.759h.099c.086-.133.205-.302.358-.507.156-.209.378-.395.666-.557.292-.166.686-.249 1.183-.249.643 0 1.21.161 1.701.482.49.322.873.778 1.148 1.368.275.59.413 1.286.413 2.088 0 .808-.138 1.509-.413 2.103-.275.59-.656 1.047-1.143 1.372-.488.321-1.049.482-1.686.482-.49 0-.883-.081-1.178-.244a2.182 2.182 0 0 1-.681-.561 7.523 7.523 0 0 1-.368-.527h-.139V132h-1.134Zm1.154-3.818c0 .577.084 1.085.253 1.526.169.438.416.781.741 1.029.325.245.722.368 1.193.368.491 0 .9-.129 1.228-.388a2.37 2.37 0 0 0 .746-1.054c.169-.444.253-.938.253-1.481 0-.537-.082-1.021-.248-1.452a2.252 2.252 0 0 0-.741-1.029c-.328-.255-.741-.383-1.238-.383-.477 0-.878.121-1.203.363-.325.239-.57.573-.736 1.004-.166.428-.248.927-.248 1.497Zm10.584 3.977c-.736 0-1.37-.162-1.904-.487a3.273 3.273 0 0 1-1.228-1.372c-.285-.59-.428-1.276-.428-2.059 0-.782.143-1.471.428-2.068.288-.6.689-1.067 1.203-1.402.517-.338 1.12-.507 1.81-.507.398 0 .79.066 1.178.199.388.133.741.348 1.059.646.318.295.572.686.761 1.174.189.487.283 1.087.283 1.799v.498h-5.886v-1.015h4.693c0-.431-.086-.815-.259-1.153a1.948 1.948 0 0 0-.725-.8c-.312-.196-.68-.294-1.104-.294-.468 0-.872.116-1.213.348a2.29 2.29 0 0 0-.781.895 2.632 2.632 0 0 0-.273 1.183v.676c0 .577.099 1.066.298 1.467.202.398.482.701.84.91.358.205.774.308 1.248.308.308 0 .587-.043.835-.129.252-.09.469-.222.652-.398.182-.179.323-.401.422-.666l1.134.318a2.51 2.51 0 0 1-.602 1.014c-.282.289-.63.514-1.044.676-.414.16-.88.239-1.397.239Zm4.947-.159v-7.636h1.133v1.153h.08c.139-.378.391-.684.756-.92a2.224 2.224 0 0 1 1.233-.353c.086 0 .193.002.323.005.129.004.227.009.293.015v1.193a3.702 3.702 0 0 0-.273-.044 2.617 2.617 0 0 0-.443-.035c-.371 0-.703.078-.994.234a1.712 1.712 0 0 0-.935 1.556V132h-1.173Zm5.189.08a.859.859 0 0 1-.631-.264.86.86 0 0 1-.264-.631c0-.246.088-.456.264-.632a.862.862 0 0 1 .631-.263c.245 0 .456.088.631.263a.861.861 0 0 1 .264.632.85.85 0 0 1-.124.447.934.934 0 0 1-.324.328.845.845 0 0 1-.447.12Zm45.172-4.375c0-1.253.162-2.405.487-3.456a10.789 10.789 0 0 1 1.402-2.908h1.034a6.378 6.378 0 0 0-.671 1.213 11.795 11.795 0 0 0-.542 1.576c-.156.57-.278 1.16-.368 1.77-.086.61-.129 1.211-.129 1.805 0 .788.076 1.589.229 2.401.152.812.358 1.566.616 2.262.259.696.547 1.263.865 1.7h-1.034a10.816 10.816 0 0 1-1.402-2.903c-.325-1.054-.487-2.208-.487-3.46Zm7.593 4.454c-.716 0-1.333-.169-1.85-.507a3.303 3.303 0 0 1-1.193-1.397c-.278-.593-.418-1.271-.418-2.033 0-.776.143-1.46.428-2.054a3.38 3.38 0 0 1 1.203-1.397c.517-.338 1.12-.507 1.81-.507.537 0 1.021.1 1.452.298.43.199.783.478 1.058.836.276.358.446.775.513 1.253h-1.174c-.089-.348-.288-.657-.596-.925-.305-.272-.716-.408-1.233-.408-.458 0-.859.119-1.203.358-.342.235-.609.569-.801.999-.189.428-.283.93-.283 1.507 0 .59.093 1.104.278 1.541.189.438.454.777.796 1.019.344.242.749.363 1.213.363.305 0 .581-.053.83-.159a1.702 1.702 0 0 0 .999-1.173h1.174c-.067.45-.231.856-.493 1.218a2.74 2.74 0 0 1-1.029.855c-.424.209-.918.313-1.481.313Zm6.965.02c-.484 0-.923-.091-1.318-.273a2.266 2.266 0 0 1-.939-.801c-.232-.351-.348-.775-.348-1.273 0-.437.086-.792.258-1.064.173-.275.403-.49.691-.646.289-.156.607-.272.955-.348.351-.079.704-.142 1.059-.189.464-.059.84-.104 1.128-.134.292-.033.504-.088.637-.164.136-.076.204-.209.204-.398v-.04c0-.49-.135-.871-.403-1.143-.265-.272-.668-.408-1.208-.408-.56 0-.999.123-1.318.368-.318.245-.542.507-.671.786l-1.113-.398c.198-.464.464-.825.795-1.084a2.981 2.981 0 0 1 1.094-.547 4.54 4.54 0 0 1 1.173-.159c.245 0 .527.03.845.09.322.056.632.174.93.353.302.179.552.449.751.81.198.361.298.845.298 1.452V132h-1.173v-1.034h-.06c-.08.166-.212.343-.398.532a2.27 2.27 0 0 1-.741.482c-.308.133-.684.199-1.128.199Zm.179-1.054c.464 0 .855-.091 1.173-.273a1.863 1.863 0 0 0 .975-1.616v-1.074c-.05.06-.159.114-.329.164a5.455 5.455 0 0 1-.576.124c-.216.033-.426.063-.632.09-.202.023-.366.043-.492.059-.305.04-.59.105-.855.194a1.465 1.465 0 0 0-.636.393c-.159.172-.239.408-.239.706 0 .408.151.716.452.925.305.205.692.308 1.159.308Zm5.462.875v-7.636h1.134v1.153h.079c.14-.378.392-.684.756-.92a2.229 2.229 0 0 1 1.233-.353c.086 0 .194.002.323.005.13.004.227.009.294.015v1.193a3.667 3.667 0 0 0-.274-.044 2.605 2.605 0 0 0-.442-.035c-.372 0-.703.078-.995.234a1.759 1.759 0 0 0-.686.636 1.72 1.72 0 0 0-.248.92V132h-1.174Zm7.86.159c-.636 0-1.198-.161-1.685-.482-.487-.325-.868-.782-1.143-1.372-.275-.594-.413-1.295-.413-2.103 0-.802.138-1.498.413-2.088.275-.59.658-1.046 1.148-1.368.491-.321 1.057-.482 1.7-.482.498 0 .89.083 1.179.249.291.162.513.348.666.557.156.205.277.374.363.507h.099v-3.759h1.173V132h-1.133v-1.173h-.139a7.523 7.523 0 0 1-.368.527 2.182 2.182 0 0 1-.681.561c-.295.163-.688.244-1.179.244Zm.16-1.054c.47 0 .868-.123 1.193-.368.325-.248.572-.591.741-1.029.169-.441.253-.949.253-1.526 0-.57-.083-1.069-.248-1.497-.166-.431-.411-.765-.736-1.004-.325-.242-.726-.363-1.203-.363-.498 0-.912.128-1.243.383a2.296 2.296 0 0 0-.741 1.029 4.102 4.102 0 0 0-.244 1.452c0 .543.083 1.037.249 1.481.169.441.418.792.746 1.054.331.259.742.388 1.233.388Zm13.885-9.287V132h-1.193l-5.548-7.994h-.1V132h-1.233v-10.182h1.194l5.568 8.014h.099v-8.014h1.213Zm7.121 7.06v-4.514h1.173V132h-1.173v-1.293h-.08a2.505 2.505 0 0 1-.835.99c-.378.268-.855.402-1.432.402-.477 0-.901-.104-1.273-.313-.371-.212-.662-.53-.875-.954-.212-.428-.318-.966-.318-1.616v-4.852h1.174v4.772c0 .557.155 1.001.467 1.333.315.331.716.497 1.203.497a2 2 0 0 0 .89-.224c.305-.149.56-.378.766-.686.208-.308.313-.701.313-1.178Zm3.322 3.122v-7.636h1.134v1.193h.099a1.92 1.92 0 0 1 .771-.95c.354-.228.78-.343 1.277-.343.504 0 .923.115 1.258.343.338.226.602.542.791.95h.079c.196-.395.489-.708.88-.94.391-.235.86-.353 1.407-.353.683 0 1.241.214 1.676.642.434.424.651 1.085.651 1.983V132h-1.174v-5.111c0-.563-.154-.966-.462-1.208a1.71 1.71 0 0 0-1.089-.363c-.537 0-.953.163-1.248.487-.294.322-.442.73-.442 1.223V132h-1.193v-5.23c0-.434-.141-.784-.423-1.049-.281-.269-.644-.403-1.089-.403-.304 0-.589.081-.855.244a1.841 1.841 0 0 0-.636.676 1.997 1.997 0 0 0-.239.989V132h-1.173Zm12.327 0v-10.182h1.173v3.759h.1c.086-.133.205-.302.358-.507.156-.209.378-.395.666-.557.292-.166.686-.249 1.183-.249.643 0 1.21.161 1.701.482.49.322.873.778 1.148 1.368.275.59.413 1.286.413 2.088 0 .808-.138 1.509-.413 2.103-.275.59-.656 1.047-1.144 1.372-.487.321-1.049.482-1.685.482-.49 0-.883-.081-1.178-.244a2.182 2.182 0 0 1-.681-.561 7.523 7.523 0 0 1-.368-.527h-.139V132h-1.134Zm1.154-3.818c0 .577.084 1.085.253 1.526.169.438.416.781.741 1.029.325.245.722.368 1.193.368.491 0 .9-.129 1.228-.388.331-.262.58-.613.746-1.054.169-.444.253-.938.253-1.481 0-.537-.083-1.021-.248-1.452a2.252 2.252 0 0 0-.741-1.029c-.328-.255-.741-.383-1.238-.383-.477 0-.878.121-1.203.363-.325.239-.57.573-.736 1.004-.166.428-.248.927-.248 1.497Zm10.584 3.977c-.736 0-1.37-.162-1.904-.487a3.273 3.273 0 0 1-1.228-1.372c-.285-.59-.428-1.276-.428-2.059 0-.782.143-1.471.428-2.068.288-.6.689-1.067 1.203-1.402.517-.338 1.12-.507 1.81-.507.397 0 .79.066 1.178.199.388.133.741.348 1.059.646.318.295.572.686.761 1.174.189.487.283 1.087.283 1.799v.498h-5.886v-1.015h4.693c0-.431-.086-.815-.259-1.153a1.943 1.943 0 0 0-.726-.8c-.311-.196-.679-.294-1.103-.294-.468 0-.872.116-1.213.348a2.29 2.29 0 0 0-.781.895 2.632 2.632 0 0 0-.273 1.183v.676c0 .577.099 1.066.298 1.467.202.398.482.701.84.91.358.205.774.308 1.248.308.308 0 .587-.043.835-.129.252-.09.469-.222.652-.398.182-.179.323-.401.422-.666l1.134.318a2.51 2.51 0 0 1-.602 1.014c-.282.289-.63.514-1.044.676-.414.16-.88.239-1.397.239Zm4.947-.159v-7.636h1.133v1.153h.08c.139-.378.391-.684.756-.92a2.223 2.223 0 0 1 1.232-.353c.087 0 .194.002.324.005.129.004.227.009.293.015v1.193a3.702 3.702 0 0 0-.273-.044 2.617 2.617 0 0 0-.443-.035c-.371 0-.703.078-.994.234a1.712 1.712 0 0 0-.935 1.556V132h-1.173Zm5.189.08a.863.863 0 0 1-.632-.264.864.864 0 0 1-.263-.631c0-.246.088-.456.263-.632a.866.866 0 0 1 .632-.263c.245 0 .456.088.631.263a.861.861 0 0 1 .264.632.842.842 0 0 1-.125.447.923.923 0 0 1-.323.328.845.845 0 0 1-.447.12Zm4.174-10.262V132h-1.174v-10.182h1.174Zm5.35 10.341c-.736 0-1.37-.162-1.904-.487a3.273 3.273 0 0 1-1.228-1.372c-.285-.59-.427-1.276-.427-2.059 0-.782.142-1.471.427-2.068.288-.6.69-1.067 1.203-1.402.517-.338 1.12-.507 1.81-.507.398 0 .79.066 1.178.199.388.133.741.348 1.059.646.318.295.572.686.761 1.174.189.487.283 1.087.283 1.799v.498h-5.886v-1.015h4.693c0-.431-.086-.815-.259-1.153a1.948 1.948 0 0 0-.725-.8c-.312-.196-.68-.294-1.104-.294-.467 0-.872.116-1.213.348a2.298 2.298 0 0 0-.781.895 2.632 2.632 0 0 0-.273 1.183v.676c0 .577.099 1.066.298 1.467.202.398.482.701.84.91.358.205.774.308 1.248.308.308 0 .587-.043.835-.129.252-.09.469-.222.652-.398.182-.179.323-.401.422-.666l1.134.318c-.119.385-.32.723-.602 1.014a2.905 2.905 0 0 1-1.044.676c-.414.16-.88.239-1.397.239Zm6.12-4.753V132h-1.173v-7.636h1.133v1.193h.1c.179-.388.451-.7.815-.935.365-.238.835-.358 1.412-.358.517 0 .97.106 1.357.318.388.209.69.527.905.955.216.424.323.961.323 1.611V132h-1.173v-4.773c0-.6-.156-1.067-.467-1.402-.312-.338-.739-.507-1.283-.507-.374 0-.709.081-1.004.244a1.736 1.736 0 0 0-.691.711c-.169.311-.254.689-.254 1.133Zm10.099 7.617c-.567 0-1.054-.073-1.462-.219a3.096 3.096 0 0 1-1.019-.567 3.07 3.07 0 0 1-.641-.746l.934-.656c.106.139.241.299.403.477.162.183.384.34.666.473.285.136.658.204 1.119.204.616 0 1.125-.15 1.526-.448.401-.298.602-.765.602-1.402v-1.551h-.1a6.255 6.255 0 0 1-.368.517c-.155.202-.381.383-.676.542-.292.156-.686.234-1.183.234-.617 0-1.17-.146-1.661-.438-.487-.291-.873-.716-1.158-1.273-.282-.556-.423-1.233-.423-2.028 0-.782.138-1.463.413-2.043.275-.584.658-1.034 1.149-1.353.49-.321 1.057-.482 1.7-.482.497 0 .891.083 1.183.249.295.162.52.348.676.557.159.205.282.374.368.507h.119v-1.213h1.134v7.855c0 .656-.149 1.19-.448 1.601a2.544 2.544 0 0 1-1.193.909 4.489 4.489 0 0 1-1.66.294Zm-.04-4.196c.471 0 .868-.108 1.193-.323.325-.216.572-.526.741-.93.169-.404.254-.888.254-1.452 0-.55-.083-1.036-.249-1.457a2.192 2.192 0 0 0-.736-.989c-.325-.239-.726-.358-1.203-.358-.497 0-.911.126-1.243.378-.328.252-.575.59-.741 1.014a3.93 3.93 0 0 0-.243 1.412c0 .53.083.999.248 1.407.169.404.418.723.746.955.331.228.742.343 1.233.343Zm8.81-6.463v.994h-3.958v-.994h3.958Zm-2.804-1.83h1.173v7.278c0 .332.048.581.144.746.1.163.226.272.378.328.156.053.32.08.492.08.129 0 .236-.007.318-.02l.199-.04.239 1.054a2.469 2.469 0 0 1-.875.139c-.332 0-.656-.071-.975-.213a1.944 1.944 0 0 1-.785-.652c-.206-.291-.308-.659-.308-1.103v-7.597Zm5.906 4.872V132h-1.173v-10.182h1.173v3.739h.099c.179-.395.448-.708.806-.94.361-.235.842-.353 1.442-.353.52 0 .976.105 1.367.313.391.206.694.522.91.95.218.424.328.964.328 1.621V132h-1.174v-4.773c0-.606-.157-1.075-.472-1.407-.312-.334-.744-.502-1.298-.502a2.16 2.16 0 0 0-1.034.244c-.301.162-.54.399-.716.711-.172.311-.258.689-.258 1.133Zm15.411-1.044v1.094h-4.455v-1.094h4.455Zm5.743 3.55v-1.014l4.474-7.08h.736v1.571h-.497l-3.381 5.35v.079h6.026v1.094h-7.358ZM387.37 132v-10.182h1.173V132h-1.173Zm6.954-5.091c0 1.253-.164 2.406-.493 3.46a10.647 10.647 0 0 1-1.397 2.904H391.4c.239-.328.461-.733.667-1.213.208-.478.391-1.001.546-1.571.156-.574.277-1.165.363-1.775a12.42 12.42 0 0 0-.094-4.206 13.815 13.815 0 0 0-.617-2.262c-.258-.696-.546-1.263-.865-1.701h1.034a10.636 10.636 0 0 1 1.397 2.909c.329 1.05.493 2.202.493 3.455Zm4.316 3.699-.079.537a10.99 10.99 0 0 1-.259 1.213c-.112.431-.23.837-.353 1.218-.122.381-.224.684-.303.91h-.895l.169-.84c.07-.348.139-.738.209-1.169.073-.427.132-.865.179-1.312l.06-.557h1.272Zm-.716-4.196a.86.86 0 0 1-.631-.264.859.859 0 0 1-.264-.631c0-.245.088-.456.264-.631a.86.86 0 0 1 .631-.264c.246 0 .456.088.632.264a.862.862 0 0 1 .263.631.934.934 0 0 1-.447.776.86.86 0 0 1-.448.119Zm-336.37 28.273v.616c-.553 0-.941.116-1.163.348-.22.232-.328.62-.328 1.163v1.591c0 .458-.045.854-.135 1.189a1.927 1.927 0 0 1-.427.83 1.78 1.78 0 0 1-.796.487c-.331.106-.74.159-1.228.159v-.974c.385 0 .686-.062.905-.184a.98.98 0 0 0 .467-.552c.093-.249.14-.567.14-.955v-1.988c0-.259.033-.494.1-.706.069-.212.195-.395.377-.547.182-.153.44-.27.776-.353.338-.083.775-.124 1.312-.124Zm-4.077-6.344c.488 0 .897.053 1.228.159.332.106.597.268.796.487.199.219.341.496.427.83.09.335.135.731.135 1.189v1.591c0 .543.109.931.328 1.163.222.232.61.348 1.163.348v.616c-.537 0-.974-.041-1.313-.124-.334-.083-.593-.2-.775-.353a1.185 1.185 0 0 1-.378-.547 2.357 2.357 0 0 1-.1-.706v-1.988c0-.388-.046-.706-.139-.955a.98.98 0 0 0-.467-.557c-.219-.119-.52-.179-.905-.179v-.974Zm4.077 5.767v1.193h-1.173v-1.193h1.173Zm3.342 3.5-.08.537c-.056.378-.142.782-.258 1.213-.113.431-.23.837-.353 1.218-.123.381-.224.684-.303.91h-.895l.169-.84c.07-.348.14-.738.209-1.169.073-.427.132-.865.179-1.312l.06-.557h1.272Zm-.716-4.196a.86.86 0 0 1-.631-.264.86.86 0 0 1-.264-.631.86.86 0 0 1 .264-.631.86.86 0 0 1 .631-.264.86.86 0 0 1 .632.264.86.86 0 0 1 .263.631.84.84 0 0 1-.124.447.93.93 0 0 1-.323.329.858.858 0 0 1-.448.119Z"/>
  <path fill="#6847C7" d="M113.442 73.406V78h-1.173V67.818h1.173v3.739h.1c.179-.395.447-.708.805-.94.362-.235.842-.353 1.442-.353.52 0 .976.105 1.367.313.391.206.695.522.91.95.219.424.328.965.328 1.62V78h-1.173v-4.773c0-.606-.158-1.075-.472-1.407-.312-.334-.745-.502-1.298-.502a2.16 2.16 0 0 0-1.034.244c-.302.162-.54.4-.716.71-.172.312-.259.69-.259 1.134Zm9.346 4.773c-.484 0-.923-.091-1.318-.273a2.262 2.262 0 0 1-.939-.8c-.232-.352-.348-.776-.348-1.274 0-.437.086-.792.258-1.063.173-.276.403-.491.691-.647.289-.156.607-.272.955-.348.351-.08.704-.142 1.059-.189.464-.06.84-.104 1.128-.134.292-.033.504-.088.637-.164.136-.076.204-.209.204-.398v-.04c0-.49-.135-.871-.403-1.143-.265-.272-.668-.408-1.208-.408-.56 0-1 .123-1.318.368-.318.246-.542.507-.671.786l-1.114-.398c.199-.464.464-.825.796-1.084a2.978 2.978 0 0 1 1.094-.547 4.53 4.53 0 0 1 1.173-.159c.245 0 .527.03.845.09.322.056.632.174.93.353.301.179.552.449.751.81.198.361.298.845.298 1.452V78h-1.173v-1.034h-.06a2.07 2.07 0 0 1-.398.532 2.27 2.27 0 0 1-.741.482c-.308.133-.684.199-1.128.199Zm.179-1.054c.464 0 .855-.091 1.173-.273a1.863 1.863 0 0 0 .975-1.616v-1.074c-.05.06-.16.114-.329.164a5.531 5.531 0 0 1-.576.124 26.457 26.457 0 0 1-1.124.15c-.305.04-.59.104-.855.193a1.47 1.47 0 0 0-.636.393c-.159.172-.239.408-.239.706 0 .408.151.716.452.925.305.205.691.308 1.159.308Zm6.636-3.719V78h-1.174v-7.636h1.134v1.193h.099c.179-.388.451-.7.816-.935.364-.239.835-.358 1.412-.358.517 0 .969.106 1.357.318.388.21.689.527.905.955.215.424.323.961.323 1.61V78h-1.174v-4.773c0-.6-.155-1.067-.467-1.402-.311-.338-.739-.507-1.283-.507-.374 0-.709.081-1.004.244-.291.162-.522.4-.691.71-.169.312-.253.69-.253 1.134Zm9.899 4.753c-.636 0-1.198-.16-1.685-.482-.487-.325-.868-.782-1.144-1.372-.275-.594-.412-1.295-.412-2.103 0-.802.137-1.498.412-2.088.276-.59.658-1.046 1.149-1.368.49-.321 1.057-.482 1.7-.482.497 0 .89.083 1.178.249.292.162.514.348.667.557.155.205.276.374.363.507h.099v-3.759h1.173V78h-1.133v-1.173h-.139a7.881 7.881 0 0 1-.368.527 2.182 2.182 0 0 1-.681.561c-.295.163-.688.244-1.179.244Zm.159-1.054c.471 0 .869-.123 1.194-.368.324-.248.571-.591.74-1.029.169-.44.254-.95.254-1.526 0-.57-.083-1.07-.249-1.497-.165-.43-.411-.765-.735-1.004-.325-.242-.726-.363-1.204-.363-.497 0-.911.128-1.242.383a2.28 2.28 0 0 0-.741 1.03c-.163.43-.244.914-.244 1.45 0 .544.083 1.038.249 1.482.169.441.417.793.745 1.054.332.259.743.388 1.233.388Zm6.826-9.287V78h-1.173V67.818h1.173Zm5.351 10.341c-.736 0-1.37-.162-1.904-.487a3.27 3.27 0 0 1-1.228-1.372c-.285-.59-.428-1.276-.428-2.058 0-.783.143-1.472.428-2.069.288-.6.689-1.067 1.203-1.402.517-.338 1.12-.507 1.81-.507.397 0 .79.067 1.178.2.388.132.741.347 1.059.645.318.295.572.687.761 1.174.189.487.283 1.087.283 1.8v.496h-5.886v-1.014h4.693c0-.43-.086-.815-.259-1.153a1.948 1.948 0 0 0-.726-.8c-.311-.196-.679-.294-1.103-.294-.468 0-.872.116-1.213.348a2.289 2.289 0 0 0-.781.895 2.632 2.632 0 0 0-.273 1.183v.677c0 .576.099 1.065.298 1.466.202.398.482.701.84.91.358.205.774.308 1.248.308.308 0 .587-.043.835-.13.252-.089.469-.221.652-.397.182-.179.323-.4.422-.666l1.134.318a2.51 2.51 0 0 1-.602 1.014c-.282.289-.63.514-1.044.677-.414.158-.88.238-1.397.238Zm4.947-.159v-7.636h1.133v1.153h.08c.139-.378.391-.684.756-.92a2.222 2.222 0 0 1 1.233-.353c.086 0 .193.002.323.005.129.004.227.009.293.015v1.193a3.492 3.492 0 0 0-.273-.044 2.703 2.703 0 0 0-.443-.035c-.371 0-.703.078-.994.234a1.712 1.712 0 0 0-.935 1.556V78h-1.173Zm43.512 48.074-1.054.298a1.954 1.954 0 0 0-.293-.512 1.43 1.43 0 0 0-.517-.418c-.219-.109-.499-.164-.84-.164-.467 0-.857.108-1.168.324-.309.212-.463.482-.463.81 0 .292.106.522.318.691.212.169.544.31.995.423l1.133.278c.683.166 1.192.419 1.526.761.335.338.503.774.503 1.307 0 .438-.126.829-.378 1.173-.249.345-.597.617-1.044.816-.448.199-.968.298-1.561.298-.779 0-1.424-.169-1.934-.507-.511-.338-.834-.832-.97-1.482l1.114-.278c.106.411.306.719.601.925.299.205.688.308 1.169.308.547 0 .981-.116 1.302-.348.325-.235.488-.517.488-.845a.887.887 0 0 0-.279-.666c-.185-.183-.471-.319-.855-.408l-1.273-.298c-.699-.166-1.213-.423-1.541-.771-.325-.351-.487-.79-.487-1.317 0-.431.121-.812.363-1.144a2.47 2.47 0 0 1 .999-.78 3.508 3.508 0 0 1 1.442-.284c.756 0 1.349.166 1.78.497.434.332.742.769.924 1.313Zm6.718 2.804v-4.514h1.174V132h-1.174v-1.293h-.079a2.508 2.508 0 0 1-.836.99c-.377.268-.855.402-1.431.402-.478 0-.902-.104-1.273-.313a2.192 2.192 0 0 1-.875-.954c-.212-.428-.318-.966-.318-1.616v-4.852h1.173v4.772c0 .557.156 1.001.467 1.333.315.331.716.497 1.204.497.291 0 .588-.075.889-.224.305-.149.561-.378.766-.686.209-.308.313-.701.313-1.178Zm3.482 3.122v-10.182h1.173v3.759h.099c.087-.133.206-.302.358-.507a2.09 2.09 0 0 1 .667-.557c.291-.166.686-.249 1.183-.249.643 0 1.209.161 1.7.482.491.322.873.778 1.148 1.368.276.59.413 1.286.413 2.088 0 .808-.137 1.509-.413 2.103-.275.59-.656 1.047-1.143 1.372-.487.321-1.049.482-1.685.482-.491 0-.884-.081-1.179-.244a2.182 2.182 0 0 1-.681-.561 7.881 7.881 0 0 1-.368-.527h-.139V132h-1.133Zm1.153-3.818c0 .577.085 1.085.254 1.526.169.438.416.781.74 1.029.325.245.723.368 1.194.368.49 0 .899-.129 1.228-.388.331-.262.58-.613.745-1.054.169-.444.254-.938.254-1.481 0-.537-.083-1.021-.249-1.452a2.238 2.238 0 0 0-.741-1.029c-.328-.255-.74-.383-1.237-.383-.478 0-.879.121-1.204.363-.324.239-.57.573-.735 1.004-.166.428-.249.927-.249 1.497Zm12.792-2.108-1.054.298a1.954 1.954 0 0 0-.293-.512 1.438 1.438 0 0 0-.517-.418c-.219-.109-.499-.164-.841-.164-.467 0-.856.108-1.168.324-.308.212-.462.482-.462.81 0 .292.106.522.318.691.212.169.543.31.994.423l1.134.278c.682.166 1.191.419 1.526.761.335.338.502.774.502 1.307 0 .438-.126.829-.378 1.173-.248.345-.596.617-1.044.816-.447.199-.968.298-1.561.298-.779 0-1.423-.169-1.934-.507-.51-.338-.833-.832-.969-1.482l1.113-.278c.106.411.307.719.602.925.298.205.688.308 1.168.308.547 0 .981-.116 1.303-.348.325-.235.487-.517.487-.845a.89.89 0 0 0-.278-.666c-.186-.183-.471-.319-.855-.408l-1.273-.298c-.7-.166-1.213-.423-1.541-.771-.325-.351-.488-.79-.488-1.317 0-.431.121-.812.363-1.144a2.48 2.48 0 0 1 1-.78 3.503 3.503 0 0 1 1.441-.284c.756 0 1.349.166 1.78.497.434.332.743.769.925 1.313Zm5.226-1.71v.994h-3.957v-.994h3.957Zm-2.804-1.83h1.174v7.278c0 .332.048.581.144.746a.739.739 0 0 0 .378.328c.155.053.319.08.492.08.129 0 .235-.007.318-.02l.199-.04.239 1.054c-.08.03-.191.06-.334.09a2.459 2.459 0 0 1-.541.049c-.332 0-.657-.071-.975-.213a1.931 1.931 0 0 1-.785-.652c-.206-.291-.309-.659-.309-1.103v-7.597Zm4.569 9.466v-7.636h1.134v1.153h.079a1.84 1.84 0 0 1 .756-.92 2.229 2.229 0 0 1 1.233-.353c.086 0 .194.002.323.005.129.004.227.009.293.015v1.193a3.514 3.514 0 0 0-.273-.044 2.605 2.605 0 0 0-.442-.035c-.372 0-.703.078-.995.234a1.711 1.711 0 0 0-.934 1.556V132h-1.174Z"/>
  <path fill="#D8226D" d="M181.344 78.179c-.483 0-.923-.091-1.317-.273a2.264 2.264 0 0 1-.94-.8c-.232-.352-.348-.776-.348-1.274 0-.437.087-.792.259-1.063.172-.276.403-.491.691-.647.288-.156.606-.272.954-.348.352-.08.705-.142 1.059-.189.464-.06.841-.104 1.129-.134.292-.033.504-.088.636-.164.136-.076.204-.209.204-.398v-.04c0-.49-.134-.871-.403-1.143-.265-.272-.667-.408-1.208-.408-.56 0-.999.123-1.317.368-.318.246-.542.507-.671.786l-1.114-.398c.199-.464.464-.825.796-1.084a2.974 2.974 0 0 1 1.093-.547 4.547 4.547 0 0 1 1.174-.159c.245 0 .527.03.845.09.321.056.631.174.929.353.302.179.552.449.751.81.199.361.298.845.298 1.452V78h-1.173v-1.034h-.059c-.08.166-.213.343-.398.532-.186.189-.433.35-.741.482-.308.133-.684.199-1.129.199Zm.179-1.054c.464 0 .856-.091 1.174-.273a1.87 1.87 0 0 0 .726-.706c.165-.289.248-.592.248-.91v-1.074c-.05.06-.159.114-.328.164a5.554 5.554 0 0 1-.577.124 26.387 26.387 0 0 1-1.123.15c-.305.04-.59.104-.855.193a1.479 1.479 0 0 0-.637.393c-.159.172-.238.408-.238.706 0 .408.15.716.452.925.305.205.691.308 1.158.308Zm10.872-5.051-1.054.298a1.955 1.955 0 0 0-.293-.512 1.43 1.43 0 0 0-.517-.418c-.219-.109-.499-.164-.84-.164-.468 0-.857.108-1.169.324-.308.212-.462.482-.462.81 0 .292.106.522.318.691.212.169.544.31.994.423l1.134.278c.683.166 1.191.42 1.526.76.335.339.502.775.502 1.308 0 .438-.126.829-.378 1.174-.248.344-.596.616-1.044.815-.447.199-.967.298-1.561.298-.779 0-1.423-.169-1.934-.507-.51-.338-.833-.832-.969-1.481l1.114-.279c.106.411.306.72.601.925.298.205.688.308 1.168.308.547 0 .981-.116 1.303-.348.325-.235.487-.517.487-.845a.89.89 0 0 0-.278-.666c-.186-.183-.471-.319-.855-.408l-1.273-.298c-.699-.166-1.213-.423-1.541-.77-.325-.352-.487-.791-.487-1.318 0-.431.121-.812.362-1.144a2.477 2.477 0 0 1 1-.78 3.51 3.51 0 0 1 1.442-.284c.755 0 1.348.166 1.779.497.435.332.743.77.925 1.313Zm2.661 8.79a2.58 2.58 0 0 1-.532-.05 1.398 1.398 0 0 1-.323-.09l.298-1.034c.285.073.537.1.756.08a.906.906 0 0 0 .582-.293c.172-.173.329-.453.472-.84l.219-.597-2.824-7.676h1.273l2.108 6.085h.079l2.108-6.085h1.273l-3.242 8.75a3.3 3.3 0 0 1-.542.979 2.024 2.024 0 0 1-.75.582c-.282.126-.6.189-.955.189Zm8.211-7.458V78h-1.174v-7.636h1.134v1.193h.099c.179-.388.451-.7.816-.935.364-.239.835-.358 1.412-.358.517 0 .969.106 1.357.318.388.21.689.527.905.955.215.424.323.961.323 1.61V78h-1.173v-4.773c0-.6-.156-1.067-.468-1.402-.311-.338-.739-.507-1.282-.507-.375 0-.71.081-1.005.244-.291.162-.522.4-.691.71-.169.312-.253.69-.253 1.134Zm10.118 4.753c-.716 0-1.332-.169-1.849-.507a3.302 3.302 0 0 1-1.193-1.397c-.279-.593-.418-1.271-.418-2.033 0-.776.142-1.46.427-2.054a3.384 3.384 0 0 1 1.204-1.397c.517-.338 1.12-.507 1.809-.507.537 0 1.021.1 1.452.299a2.78 2.78 0 0 1 1.059.835 2.6 2.6 0 0 1 .512 1.253h-1.173a1.824 1.824 0 0 0-.597-.925c-.305-.272-.716-.408-1.233-.408-.457 0-.858.12-1.203.358-.341.236-.608.569-.8 1-.189.427-.284.93-.284 1.506 0 .59.093 1.103.279 1.541.189.438.454.777.795 1.02.345.241.749.362 1.213.362.305 0 .582-.053.83-.159.249-.106.459-.258.632-.457.172-.2.295-.438.368-.716h1.173a2.713 2.713 0 0 1-1.521 2.073c-.425.209-.918.313-1.482.313Zm12.056-7.795v.994h-4.116v-.994h4.116ZM222.558 78v-8.69c0-.438.102-.802.308-1.094.205-.292.472-.51.8-.656a2.53 2.53 0 0 1 1.039-.22 2.695 2.695 0 0 1 1.114.199l-.338 1.015a5.947 5.947 0 0 0-.249-.075 1.5 1.5 0 0 0-.407-.044c-.388 0-.668.097-.84.293-.169.196-.254.482-.254.86V78h-1.173Zm9.34-3.122v-4.514h1.173V78h-1.173v-1.293h-.079a2.505 2.505 0 0 1-.836.99c-.378.268-.855.402-1.432.402-.477 0-.901-.104-1.272-.313a2.192 2.192 0 0 1-.875-.954c-.212-.428-.318-.966-.318-1.616v-4.852h1.173v4.772c0 .557.156 1.001.467 1.333.315.331.716.497 1.203.497.292 0 .589-.075.89-.224.305-.149.56-.378.766-.686.209-.308.313-.7.313-1.178Zm4.496-1.472V78h-1.174v-7.636h1.134v1.193h.099c.179-.388.451-.7.816-.935.364-.239.835-.358 1.412-.358.517 0 .969.106 1.357.318.388.21.689.527.905.955.215.424.323.961.323 1.61V78h-1.173v-4.773c0-.6-.156-1.067-.468-1.402-.311-.338-.739-.507-1.282-.507-.375 0-.71.081-1.005.244-.291.162-.522.4-.691.71-.169.312-.253.69-.253 1.134Zm10.118 4.753c-.716 0-1.332-.169-1.849-.507a3.312 3.312 0 0 1-1.194-1.397c-.278-.593-.417-1.271-.417-2.033 0-.776.142-1.46.427-2.054a3.384 3.384 0 0 1 1.204-1.397c.517-.338 1.12-.507 1.809-.507.537 0 1.021.1 1.452.299a2.78 2.78 0 0 1 1.059.835 2.6 2.6 0 0 1 .512 1.253h-1.173a1.824 1.824 0 0 0-.597-.925c-.305-.272-.716-.408-1.233-.408-.457 0-.858.12-1.203.358-.341.236-.608.569-.8 1-.189.427-.284.93-.284 1.506 0 .59.093 1.103.279 1.541.188.438.454.777.795 1.02.345.241.749.362 1.213.362.305 0 .582-.053.83-.159.249-.106.459-.258.632-.457.172-.2.295-.438.368-.716h1.173a2.713 2.713 0 0 1-1.521 2.073c-.425.209-.918.313-1.482.313Zm8.039-7.795v.994h-3.957v-.994h3.957Zm-2.804-1.83h1.173v7.278c0 .332.049.58.145.746a.746.746 0 0 0 .377.328c.156.053.32.08.493.08.129 0 .235-.007.318-.02l.199-.04.238 1.054c-.079.03-.19.06-.333.09-.142.033-.323.05-.542.05a2.36 2.36 0 0 1-.974-.214 1.939 1.939 0 0 1-.786-.652c-.205-.291-.308-.66-.308-1.103v-7.597ZM256.316 78v-7.636h1.173V78h-1.173Zm.597-8.91a.835.835 0 0 1-.592-.233.752.752 0 0 1-.244-.561.75.75 0 0 1 .244-.562.835.835 0 0 1 .592-.234c.228 0 .424.078.586.234a.743.743 0 0 1 .249.562.743.743 0 0 1-.249.561.816.816 0 0 1-.586.234Zm5.828 9.07c-.69 0-1.295-.165-1.815-.493a3.346 3.346 0 0 1-1.213-1.377c-.288-.59-.433-1.28-.433-2.068 0-.796.145-1.49.433-2.084a3.34 3.34 0 0 1 1.213-1.382c.52-.328 1.125-.492 1.815-.492.689 0 1.292.164 1.809.492.521.329.925.79 1.213 1.382.292.594.438 1.288.438 2.084 0 .788-.146 1.478-.438 2.068a3.291 3.291 0 0 1-1.213 1.377c-.517.328-1.12.492-1.809.492Zm0-1.055c.523 0 .954-.134 1.292-.403a2.37 2.37 0 0 0 .751-1.058c.162-.438.244-.912.244-1.422 0-.51-.082-.986-.244-1.427a2.402 2.402 0 0 0-.751-1.07c-.338-.27-.769-.407-1.292-.407-.524 0-.955.136-1.293.408a2.41 2.41 0 0 0-.751 1.069 4.1 4.1 0 0 0-.243 1.427c0 .51.081.984.243 1.422.163.437.413.79.751 1.058.338.269.769.403 1.293.403Zm6.424-3.699V78h-1.173v-7.636h1.133v1.193h.1c.179-.388.451-.7.815-.935.365-.239.835-.358 1.412-.358.517 0 .97.106 1.357.318.388.21.69.527.905.955.216.424.323.961.323 1.61V78h-1.173v-4.773c0-.6-.156-1.067-.467-1.402-.312-.338-.739-.507-1.283-.507-.375 0-.709.081-1.004.244a1.74 1.74 0 0 0-.691.71c-.169.312-.254.69-.254 1.134ZM69.051 105.16c-.716 0-1.332-.169-1.85-.507a3.306 3.306 0 0 1-1.192-1.397c-.279-.593-.418-1.271-.418-2.033 0-.776.142-1.46.428-2.054a3.38 3.38 0 0 1 1.203-1.397c.517-.338 1.12-.507 1.81-.507.536 0 1.02.1 1.451.299.43.198.784.477 1.059.835a2.6 2.6 0 0 1 .512 1.253h-1.173a1.824 1.824 0 0 0-.597-.925c-.305-.272-.716-.408-1.233-.408-.457 0-.858.12-1.203.358-.341.236-.608.569-.8 1-.19.427-.284.929-.284 1.506 0 .59.093 1.104.279 1.541.188.438.454.777.795 1.019.345.242.75.363 1.213.363.305 0 .582-.053.83-.159a1.71 1.71 0 0 0 .632-.457c.172-.199.295-.438.368-.716h1.173a2.72 2.72 0 0 1-.492 1.218 2.749 2.749 0 0 1-1.03.855c-.424.209-.917.313-1.48.313Zm7.82 0c-.689 0-1.294-.164-1.814-.492a3.342 3.342 0 0 1-1.213-1.377c-.289-.59-.433-1.28-.433-2.068 0-.796.144-1.49.433-2.084a3.337 3.337 0 0 1 1.213-1.382c.52-.328 1.125-.492 1.814-.492.69 0 1.293.164 1.81.492.52.329.925.79 1.213 1.382.292.594.438 1.288.438 2.084 0 .788-.146 1.478-.438 2.068a3.297 3.297 0 0 1-1.213 1.377c-.517.328-1.12.492-1.81.492Zm0-1.054c.524 0 .955-.134 1.293-.403a2.37 2.37 0 0 0 .75-1.059 4.05 4.05 0 0 0 .244-1.421c0-.511-.08-.986-.243-1.427a2.405 2.405 0 0 0-.75-1.07c-.339-.27-.77-.407-1.294-.407-.523 0-.954.136-1.292.408a2.405 2.405 0 0 0-.75 1.069 4.098 4.098 0 0 0-.244 1.427c0 .51.08.984.243 1.421.162.438.413.791.75 1.059.339.269.77.403 1.293.403Zm6.425-3.699V105h-1.173v-7.636h1.133v1.193h.1c.179-.388.45-.7.815-.935.365-.239.835-.358 1.412-.358.517 0 .97.106 1.357.318.388.21.69.527.905.955.215.424.323.961.323 1.611V105h-1.173v-4.773c0-.6-.156-1.067-.468-1.402-.311-.338-.739-.507-1.282-.507-.375 0-.71.081-1.004.244-.292.162-.522.4-.692.71-.169.312-.253.69-.253 1.134Zm12.425-1.332-1.054.298a1.957 1.957 0 0 0-.293-.512 1.423 1.423 0 0 0-.517-.418c-.219-.109-.499-.164-.84-.164-.468 0-.857.108-1.169.324-.308.212-.462.482-.462.81 0 .292.106.522.318.691.212.169.544.31.995.423l1.133.278c.683.166 1.192.419 1.526.761.335.338.502.774.502 1.307 0 .438-.126.829-.377 1.173-.249.345-.597.617-1.044.816-.448.199-.968.298-1.561.298-.78 0-1.424-.169-1.934-.507-.51-.338-.834-.832-.97-1.482l1.114-.278c.106.411.306.719.601.925.299.205.688.308 1.169.308.546 0 .98-.116 1.302-.348.325-.235.487-.517.487-.845a.888.888 0 0 0-.278-.666c-.186-.183-.47-.319-.855-.408l-1.273-.298c-.7-.166-1.213-.423-1.541-.771-.325-.351-.487-.79-.487-1.317 0-.431.12-.812.363-1.144a2.47 2.47 0 0 1 .999-.78 3.51 3.51 0 0 1 1.442-.284c.755 0 1.349.166 1.78.497.434.332.742.77.924 1.313Zm5.227-1.71v.994H96.99v-.994h3.958Zm-2.804-1.83h1.173v7.278c0 .332.048.581.144.746.1.163.225.272.378.328.156.053.32.08.492.08.129 0 .235-.007.318-.02l.199-.04.239 1.054a2.469 2.469 0 0 1-.875.139 2.37 2.37 0 0 1-.975-.213 1.938 1.938 0 0 1-.785-.652c-.206-.291-.308-.659-.308-1.103v-7.597ZM65.949 132v-7.636h1.133v1.153h.08a1.84 1.84 0 0 1 .756-.92 2.227 2.227 0 0 1 1.233-.353c.086 0 .194.002.323.005.129.004.227.009.293.015v1.193a3.65 3.65 0 0 0-.273-.044 2.606 2.606 0 0 0-.443-.035c-.371 0-.703.078-.994.234a1.758 1.758 0 0 0-.686.636 1.714 1.714 0 0 0-.249.92V132H65.95Zm8.178.159c-.736 0-1.37-.162-1.904-.487a3.273 3.273 0 0 1-1.228-1.372c-.285-.59-.428-1.276-.428-2.059 0-.782.143-1.471.428-2.068.288-.6.69-1.067 1.203-1.402.517-.338 1.12-.507 1.81-.507.398 0 .79.066 1.178.199.388.133.74.348 1.059.646.318.295.572.686.76 1.174.19.487.284 1.087.284 1.799v.498h-5.886v-1.015h4.693c0-.431-.086-.815-.259-1.153a1.944 1.944 0 0 0-.725-.8c-.312-.196-.68-.294-1.104-.294-.468 0-.872.116-1.213.348a2.291 2.291 0 0 0-.78.895 2.628 2.628 0 0 0-.274 1.183v.676c0 .577.1 1.066.298 1.467.202.398.482.701.84.91.358.205.774.308 1.248.308.308 0 .587-.043.835-.129a1.79 1.79 0 0 0 .652-.398c.182-.179.323-.401.422-.666l1.134.318a2.51 2.51 0 0 1-.602 1.014c-.281.289-.63.514-1.044.676-.414.16-.88.239-1.397.239Zm8.268-7.795v.994h-3.957v-.994h3.957Zm-2.804-1.83h1.173v7.278c0 .332.048.581.144.746.1.163.226.272.378.328.156.053.32.08.492.08.13 0 .236-.007.319-.02l.199-.04.238 1.054c-.08.03-.19.06-.333.09a2.467 2.467 0 0 1-.542.049c-.331 0-.656-.071-.974-.213a1.94 1.94 0 0 1-.786-.652c-.205-.291-.308-.659-.308-1.103v-7.597Zm9.381 6.344v-4.514h1.174V132h-1.174v-1.293h-.08a2.507 2.507 0 0 1-.834.99c-.378.268-.856.402-1.432.402-.478 0-.902-.104-1.273-.313a2.191 2.191 0 0 1-.875-.954c-.212-.428-.318-.966-.318-1.616v-4.852h1.173v4.772c0 .557.156 1.001.467 1.333.315.331.716.497 1.204.497a2 2 0 0 0 .89-.224 1.94 1.94 0 0 0 .765-.686c.209-.308.313-.701.313-1.178ZM92.295 132v-7.636h1.133v1.153h.08c.139-.378.39-.684.755-.92a2.227 2.227 0 0 1 1.233-.353c.086 0 .194.002.323.005.13.004.227.009.294.015v1.193a3.65 3.65 0 0 0-.274-.044 2.606 2.606 0 0 0-.442-.035 2.08 2.08 0 0 0-.995.234 1.758 1.758 0 0 0-.686.636 1.714 1.714 0 0 0-.248.92V132h-1.173Zm6.382-4.594V132h-1.173v-7.636h1.133v1.193h.1c.178-.388.45-.7.815-.935.364-.238.835-.358 1.412-.358.517 0 .969.106 1.357.318.388.209.689.527.905.955.215.424.323.961.323 1.611V132h-1.173v-4.773c0-.6-.156-1.067-.468-1.402-.311-.338-.739-.507-1.282-.507-.375 0-.71.081-1.005.244a1.738 1.738 0 0 0-.69.711c-.17.311-.254.689-.254 1.133Z"/>
  <rect width="510" height="242" x=".5" y=".5" fill="url(#a)" stroke="url(#b)" rx="13.5"/>
  <path fill="#fff" fill-opacity=".48" d="M29.926 20.063V24h-1.005v-8.727h1.005v3.204h.085a1.85 1.85 0 0 1 .69-.805c.31-.202.722-.303 1.236-.303.446 0 .837.09 1.172.269.336.176.596.447.78.814.188.363.281.826.281 1.389V24h-1.005v-4.09c0-.52-.135-.923-.405-1.207-.267-.287-.638-.43-1.112-.43-.33 0-.625.07-.887.209a1.522 1.522 0 0 0-.613.609c-.148.267-.222.59-.222.971Zm8.93-2.608v.852h-3.391v-.852h3.392Zm-2.403-1.569h1.006v6.239c0 .284.041.497.124.64a.64.64 0 0 0 .324.28c.133.046.274.069.422.069.11 0 .201-.006.272-.017l.17-.035.205.904a2.046 2.046 0 0 1-.285.077 2.103 2.103 0 0 1-.465.042 2.01 2.01 0 0 1-.835-.183 1.66 1.66 0 0 1-.673-.558c-.177-.25-.265-.566-.265-.946v-6.512Zm6.763 1.569v.852h-3.392v-.852h3.392Zm-2.403-1.569h1.005v6.239c0 .284.042.497.124.64a.64.64 0 0 0 .324.28c.134.046.274.069.422.069.11 0 .202-.006.273-.017l.17-.035.205.904a2.05 2.05 0 0 1-.286.077 2.103 2.103 0 0 1-.464.042c-.285 0-.563-.06-.836-.183a1.659 1.659 0 0 1-.673-.558c-.176-.25-.264-.566-.264-.946v-6.512Zm3.916 10.569v-9h.972v1.04h.119a8.18 8.18 0 0 1 .307-.435 1.8 1.8 0 0 1 .57-.478c.25-.142.589-.213 1.015-.213.551 0 1.037.138 1.457.414.42.275.749.666.985 1.171.236.506.353 1.103.353 1.79 0 .694-.117 1.294-.353 1.803-.236.506-.563.898-.98 1.176-.418.276-.9.413-1.445.413-.42 0-.757-.07-1.01-.208a1.873 1.873 0 0 1-.584-.482 6.413 6.413 0 0 1-.315-.452h-.085v3.46h-1.006Zm.989-5.728c0 .495.072.93.217 1.308.145.375.356.67.635.883.278.21.62.315 1.023.315.42 0 .771-.11 1.052-.332.284-.225.497-.526.64-.904.144-.38.217-.804.217-1.27 0-.46-.071-.875-.213-1.244a1.922 1.922 0 0 0-.635-.882c-.282-.219-.635-.328-1.061-.328-.41 0-.753.103-1.032.31a1.867 1.867 0 0 0-.63.862c-.142.366-.213.794-.213 1.282Zm7.056 3.341a.738.738 0 0 1-.54-.226.738.738 0 0 1-.227-.54.74.74 0 0 1 .226-.542.739.739 0 0 1 .542-.226c.21 0 .39.075.54.226.151.15.227.33.227.541a.796.796 0 0 1-.383.665.73.73 0 0 1-.384.102Zm0-4.858a.739.739 0 0 1-.54-.226.738.738 0 0 1-.227-.54c0-.211.076-.391.226-.542a.738.738 0 0 1 .542-.226c.21 0 .39.075.54.226.151.15.227.331.227.541a.796.796 0 0 1-.383.665.732.732 0 0 1-.384.102Zm5.657-4.346L55.62 25.312h-.92l2.812-10.448h.92Zm4.278 0-2.813 10.448h-.92l2.812-10.448h.92Zm2.198.409V24H63.9v-8.727h1.006Zm4.5 8.863c-.59 0-1.109-.14-1.555-.421a2.866 2.866 0 0 1-1.04-1.18c-.247-.507-.37-1.098-.37-1.774 0-.681.123-1.277.37-1.785a2.86 2.86 0 0 1 1.04-1.185c.446-.281.965-.422 1.556-.422.59 0 1.108.14 1.55.422a2.81 2.81 0 0 1 1.04 1.185c.25.508.376 1.104.376 1.785 0 .677-.125 1.267-.375 1.773-.248.506-.594.9-1.04 1.18-.443.282-.96.422-1.551.422Zm0-.903c.45 0 .819-.115 1.109-.345.29-.23.504-.533.643-.908.14-.375.209-.781.209-1.219 0-.437-.07-.845-.209-1.223a2.06 2.06 0 0 0-.643-.916c-.29-.233-.66-.35-1.108-.35-.45 0-.819.117-1.108.35-.29.233-.504.538-.644.916a3.51 3.51 0 0 0-.209 1.223c0 .438.07.844.21 1.22.139.374.353.677.643.907.29.23.659.345 1.108.345Zm7.16.903c-.613 0-1.141-.145-1.584-.434a2.832 2.832 0 0 1-1.023-1.198c-.239-.508-.358-1.09-.358-1.743 0-.664.122-1.251.366-1.76.248-.51.591-.91 1.032-1.197.443-.29.96-.435 1.55-.435.461 0 .876.085 1.245.256.37.17.672.41.908.716.236.307.382.665.439 1.074h-1.006a1.56 1.56 0 0 0-.511-.793c-.262-.233-.614-.35-1.057-.35-.392 0-.736.103-1.031.308a2 2 0 0 0-.687.856c-.161.367-.242.797-.242 1.291 0 .506.08.946.238 1.321.162.375.39.667.682.874.295.207.642.311 1.04.311.261 0 .498-.046.712-.136.213-.091.393-.222.54-.393.148-.17.254-.375.316-.613h1.006a2.33 2.33 0 0 1-1.304 1.777c-.364.179-.787.268-1.27.268Zm5.971.017a2.66 2.66 0 0 1-1.13-.234 1.94 1.94 0 0 1-.805-.686c-.198-.301-.298-.665-.298-1.091 0-.375.074-.679.222-.912.147-.236.345-.42.592-.554a3.12 3.12 0 0 1 .818-.298 10 10 0 0 1 .908-.162c.398-.051.72-.09.967-.115.25-.029.432-.075.546-.14.116-.066.174-.18.174-.342v-.034c0-.42-.115-.747-.345-.98-.227-.233-.572-.35-1.035-.35-.48 0-.857.106-1.13.316-.272.21-.464.435-.575.673l-.954-.34c.17-.398.397-.708.681-.93.287-.224.6-.38.938-.468.34-.091.676-.137 1.006-.137a4 4 0 0 1 .724.077c.276.048.541.15.797.303.258.153.473.385.643.694.17.31.256.725.256 1.244V24h-1.006v-.886h-.05a1.77 1.77 0 0 1-.342.456c-.159.162-.37.3-.635.413-.264.114-.586.17-.967.17Zm.153-.903c.398 0 .733-.078 1.006-.234a1.595 1.595 0 0 0 .835-1.385v-.92c-.042.05-.136.097-.28.14-.143.04-.308.075-.495.106a22.366 22.366 0 0 1-.963.128c-.262.034-.506.09-.733.166a1.264 1.264 0 0 0-.546.337c-.136.148-.204.35-.204.605 0 .35.129.614.387.793.262.176.593.264.993.264Zm5.688-7.977V24h-1.005v-8.727h1.005Zm2.848 4.79V24H90.22v-8.727h1.006v3.204h.085a1.85 1.85 0 0 1 .69-.805c.31-.202.722-.303 1.236-.303.446 0 .837.09 1.172.269.335.176.595.447.78.814.188.363.281.826.281 1.389V24h-1.005v-4.09c0-.52-.135-.923-.405-1.207-.267-.287-.638-.43-1.113-.43-.329 0-.624.07-.886.209a1.53 1.53 0 0 0-.614.609c-.147.267-.221.59-.221.971Zm8.743 4.073c-.59 0-1.11-.14-1.555-.421a2.866 2.866 0 0 1-1.04-1.18c-.247-.507-.37-1.098-.37-1.774 0-.681.123-1.277.37-1.785a2.86 2.86 0 0 1 1.04-1.185c.446-.281.964-.422 1.555-.422s1.108.14 1.551.422a2.82 2.82 0 0 1 1.04 1.185c.25.508.375 1.104.375 1.785 0 .677-.125 1.267-.375 1.773-.247.506-.594.9-1.04 1.18-.443.282-.96.422-1.55.422Zm0-.903c.449 0 .818-.115 1.108-.345.29-.23.504-.533.644-.908a3.48 3.48 0 0 0 .208-1.219c0-.437-.069-.845-.208-1.223a2.066 2.066 0 0 0-.644-.916c-.29-.233-.659-.35-1.108-.35-.449 0-.818.117-1.108.35a2.06 2.06 0 0 0-.643.916c-.14.378-.21.786-.21 1.223 0 .438.07.844.21 1.22.139.374.353.677.643.907.29.23.66.345 1.108.345Zm9.138-4.313-.904.256a1.677 1.677 0 0 0-.251-.439 1.223 1.223 0 0 0-.443-.358c-.188-.094-.428-.14-.721-.14-.4 0-.734.092-1.001.277-.264.181-.396.413-.396.694 0 .25.091.448.272.593.182.144.466.265.853.362l.971.238c.586.143 1.022.36 1.309.652.286.29.43.664.43 1.121 0 .375-.108.71-.324 1.006a2.145 2.145 0 0 1-.895.699c-.383.17-.829.255-1.338.255-.668 0-1.22-.145-1.658-.434-.437-.29-.714-.713-.831-1.27l.955-.239c.091.352.263.617.516.793.255.176.589.264 1.001.264.469 0 .841-.1 1.117-.298.278-.202.417-.444.417-.725a.761.761 0 0 0-.238-.57c-.16-.157-.404-.273-.733-.35l-1.091-.256c-.6-.142-1.04-.362-1.321-.66-.279-.301-.418-.678-.418-1.13 0-.369.104-.696.311-.98.21-.284.496-.507.857-.669a3.003 3.003 0 0 1 1.235-.243c.648 0 1.157.142 1.526.427.372.284.636.659.793 1.125Zm4.479-1.466v.853h-3.392v-.852h3.392Zm-2.403-1.568h1.006v6.239c0 .284.041.497.123.64a.64.64 0 0 0 .324.28c.134.046.274.069.422.069.111 0 .202-.006.273-.017l.17-.035.205.904a2.096 2.096 0 0 1-.286.077 2.1 2.1 0 0 1-.464.042 2.03 2.03 0 0 1-.836-.183 1.664 1.664 0 0 1-.673-.558c-.176-.25-.264-.566-.264-.946v-6.512Zm4.649 8.182a.737.737 0 0 1-.541-.226.737.737 0 0 1-.226-.54c0-.211.075-.392.226-.542a.738.738 0 0 1 .541-.226c.21 0 .391.075.541.226.151.15.226.33.226.541 0 .14-.035.267-.106.384a.807.807 0 0 1-.277.28.734.734 0 0 1-.384.103Zm0-4.858a.738.738 0 0 1-.541-.226.737.737 0 0 1-.226-.54c0-.211.075-.391.226-.542a.737.737 0 0 1 .541-.226c.21 0 .391.075.541.226.151.15.226.331.226.541 0 .14-.035.267-.106.384a.807.807 0 0 1-.277.281.734.734 0 0 1-.384.102Zm5.504 4.91c-.563 0-1.064-.097-1.505-.29a2.582 2.582 0 0 1-1.044-.806 2.164 2.164 0 0 1-.417-1.206h1.074c.022.281.119.524.289.729.171.202.394.358.669.469.276.11.581.166.917.166.375 0 .707-.066.997-.196.29-.13.517-.313.682-.546.164-.233.247-.503.247-.81 0-.32-.08-.603-.239-.847a1.579 1.579 0 0 0-.699-.58c-.307-.14-.682-.209-1.125-.209h-.699v-.937h.699c.347 0 .651-.063.912-.188a1.414 1.414 0 0 0 .844-1.33c0-.295-.065-.552-.196-.77a1.34 1.34 0 0 0-.554-.512 1.792 1.792 0 0 0-.835-.183c-.301 0-.586.055-.853.166-.264.108-.48.266-.647.473a1.228 1.228 0 0 0-.273.741h-1.023c.017-.457.155-.857.414-1.201a2.595 2.595 0 0 1 1.014-.81c.42-.193.882-.29 1.385-.29.54 0 1.003.11 1.389.329.386.215.683.501.891.856.207.355.311.739.311 1.15 0 .492-.13.911-.388 1.258a1.968 1.968 0 0 1-1.044.72v.068c.551.091.981.325 1.291.703.31.375.465.84.465 1.394 0 .474-.13.9-.388 1.278-.256.375-.605.67-1.049.887-.443.215-.947.323-1.512.323Zm7.538 0c-.642 0-1.189-.175-1.641-.525-.451-.352-.796-.862-1.035-1.53-.239-.67-.358-1.48-.358-2.429 0-.943.119-1.748.358-2.416.241-.67.588-1.182 1.04-1.534.454-.355 1-.533 1.636-.533.636 0 1.18.178 1.632.533.455.352.801.864 1.04 1.534.241.668.362 1.473.362 2.416 0 .95-.119 1.759-.358 2.43-.239.667-.584 1.177-1.035 1.53-.452.349-.999.523-1.641.523Zm0-.938c.636 0 1.131-.307 1.483-.92.352-.614.528-1.49.528-2.626 0-.755-.081-1.399-.243-1.93-.159-.531-.389-.936-.69-1.215a1.524 1.524 0 0 0-1.078-.417c-.631 0-1.124.31-1.479.933-.355.62-.532 1.496-.532 2.63 0 .755.079 1.397.238 1.925.159.529.388.93.686 1.206.301.276.664.414 1.087.414Zm7.5.937c-.642 0-1.189-.174-1.641-.524-.451-.352-.796-.862-1.035-1.53-.239-.67-.358-1.48-.358-2.429 0-.943.119-1.748.358-2.416.241-.67.588-1.182 1.04-1.534.454-.355 1-.533 1.636-.533.636 0 1.18.178 1.632.533.455.352.801.864 1.04 1.534.241.668.362 1.473.362 2.416 0 .95-.119 1.759-.358 2.43-.239.667-.584 1.177-1.035 1.53-.452.349-.999.523-1.641.523Zm0-.937c.636 0 1.131-.307 1.483-.92.352-.614.528-1.49.528-2.626 0-.755-.081-1.399-.243-1.93-.159-.531-.389-.936-.69-1.215a1.524 1.524 0 0 0-1.078-.417c-.631 0-1.124.31-1.479.933-.355.62-.532 1.496-.532 2.63 0 .755.079 1.397.238 1.925.159.529.388.93.686 1.206.301.276.664.414 1.087.414Zm7.5.937c-.642 0-1.189-.174-1.641-.524-.451-.352-.796-.862-1.035-1.53-.239-.67-.358-1.48-.358-2.429 0-.943.119-1.748.358-2.416.241-.67.588-1.182 1.04-1.534.454-.355 1-.533 1.636-.533.636 0 1.18.178 1.632.533.455.352.801.864 1.04 1.534.241.668.362 1.473.362 2.416 0 .95-.119 1.759-.358 2.43-.239.667-.584 1.177-1.035 1.53-.452.349-.999.523-1.641.523Zm0-.937c.636 0 1.131-.307 1.483-.92.352-.614.528-1.49.528-2.626 0-.755-.081-1.399-.243-1.93-.159-.531-.389-.936-.69-1.215a1.524 1.524 0 0 0-1.078-.417c-.631 0-1.124.31-1.479.933-.355.62-.532 1.496-.532 2.63 0 .755.079 1.397.238 1.925.159.529.388.93.686 1.206.301.276.664.414 1.087.414Z"/>
  <defs>
    <linearGradient id="a" x1="255.5" x2="255.5" y1="0" y2="243" gradientUnits="userSpaceOnUse">
      <stop stop-color="#D9D9D9" stop-opacity=".19"/>
      <stop offset="1" stop-color="#D9D9D9" stop-opacity="0"/>
    </linearGradient>
    <linearGradient id="b" x1="255.5" x2="255.5" y1="0" y2="243" gradientUnits="userSpaceOnUse">
      <stop stop-color="#fff" stop-opacity=".72"/>
      <stop offset=".51" stop-opacity="0"/>
      <stop offset="1" stop-color="#fff" stop-opacity=".38"/>
    </linearGradient>
  </defs>
</svg>
