<svg xmlns="http://www.w3.org/2000/svg" width="50" height="50" fill="none" viewBox="0 0 50 50">
  <g clip-path="url(#a)">
    <path fill="#fff" d="M34.375 9.375a9.302 9.302 0 0 1-.86 3.926l5.157 8.906a18.683 18.683 0 0 1-8.643 5.234L25 18.75l-6.64 11.475a21.98 21.98 0 0 0 6.65 1.025c6.904 0 13.066-3.193 17.08-8.203a3.132 3.132 0 0 1 4.394-.488 3.13 3.13 0 0 1 .489 4.394C41.807 33.38 33.887 37.5 25 37.5c-3.457 0-6.777-.625-9.834-1.768l-5.527 9.551a4.708 4.708 0 0 1-1.963 1.846l-5.41 2.705A1.567 1.567 0 0 1 0 48.437v-5.41c0-.82.215-1.63.635-2.353l5.86-10.127a27.886 27.886 0 0 1-3.448-3.594 3.123 3.123 0 0 1 .488-4.394 3.123 3.123 0 0 1 4.395.488 22.705 22.705 0 0 0 1.777 1.963l6.777-11.71a9.385 9.385 0 0 1-.859-3.925C15.625 4.199 19.825 0 25 0c5.176 0 9.375 4.2 9.375 9.375Zm2.05 29.092a31.411 31.411 0 0 0 8.682-5.166l4.268 7.373c.41.713.635 1.523.635 2.353v5.41a1.567 1.567 0 0 1-2.266 1.397l-5.41-2.705a4.708 4.708 0 0 1-1.963-1.846l-3.945-6.816ZM25 12.5a3.125 3.125 0 1 0 0-6.25 3.125 3.125 0 0 0 0 6.25Z"/>
  </g>
  <defs>
    <clipPath id="a">
      <path fill="#fff" d="M0 0h50v50H0z"/>
    </clipPath>
  </defs>
</svg>
