<svg xmlns="http://www.w3.org/2000/svg" width="49" height="50" fill="none" viewBox="0 0 49 50">
  <g clip-path="url(#a)">
    <path fill="#fff" d="M16.201 38.809c0 .195-.224.351-.508.351-.322.03-.546-.127-.546-.351 0-.196.224-.352.507-.352.293-.03.547.127.547.352Zm-3.037-.44c-.068.196.127.42.42.479.254.097.547 0 .606-.196.058-.195-.127-.42-.42-.508-.254-.068-.538.03-.606.225Zm4.316-.166c-.283.069-.478.254-.449.479.03.195.284.322.576.253.284-.068.479-.253.45-.449-.03-.185-.293-.312-.576-.283ZM23.907.781C10.361.781 0 11.065 0 24.61c0 10.83 6.816 20.098 16.553 23.36 1.25.224 1.69-.547 1.69-1.182 0-.605-.03-3.945-.03-5.996 0 0-6.836 1.465-8.272-2.91 0 0-1.113-2.842-2.714-3.574 0 0-2.237-1.534.156-1.504 0 0 2.431.195 3.77 2.52 2.138 3.769 5.722 2.685 7.118 2.04.225-1.562.86-2.646 1.563-3.29-5.459-.606-10.967-1.397-10.967-10.792 0-2.685.742-4.033 2.305-5.752-.254-.634-1.084-3.252.254-6.63 2.04-.635 6.738 2.636 6.738 2.636a22.943 22.943 0 0 1 6.133-.83c2.08 0 4.18.283 6.133.83 0 0 4.697-3.281 6.738-2.637 1.338 3.39.508 5.997.254 6.631 1.562 1.729 2.52 3.076 2.52 5.752 0 9.424-5.752 10.176-11.212 10.791.899.772 1.66 2.237 1.66 4.531 0 3.291-.029 7.364-.029 8.165 0 .634.45 1.406 1.69 1.181 9.765-3.242 16.386-12.51 16.386-23.34 0-13.545-10.986-23.828-24.53-23.828ZM9.492 34.463c-.127.097-.097.322.069.508.156.156.38.224.507.097.127-.097.098-.322-.068-.508-.156-.156-.38-.224-.508-.097Zm-1.055-.791c-.068.127.03.283.225.38.156.098.352.07.42-.068.068-.127-.03-.283-.225-.38-.195-.06-.351-.03-.42.068Zm3.165 3.476c-.157.127-.098.42.127.606.224.224.507.254.634.098.127-.127.069-.42-.127-.606-.215-.224-.508-.254-.634-.098Zm-1.114-1.435c-.156.097-.156.352 0 .576.157.225.42.322.547.225.156-.127.156-.381 0-.606-.137-.224-.39-.322-.547-.195Z"/>
  </g>
  <defs>
    <clipPath id="a">
      <path fill="#fff" d="M0 0h48.438v50H0z"/>
    </clipPath>
  </defs>
</svg>
