<svg xmlns="http://www.w3.org/2000/svg" width="44" height="50" fill="none" viewBox="0 0 44 50">
  <g clip-path="url(#a)">
    <path fill="#fff" d="M21.875 49.61a3.825 3.825 0 0 1-1.895-.508l-6.025-3.565c-.898-.508-.459-.684-.166-.781 1.201-.42 1.445-.508 2.725-1.24.136-.078.312-.05.449.039l4.629 2.744c.166.098.4.098.556 0l18.037-10.41a.578.578 0 0 0 .274-.489V14.58a.582.582 0 0 0-.283-.498l-18.028-10.4a.565.565 0 0 0-.556 0L3.574 14.092a.57.57 0 0 0-.283.498V35.4c0 .196.107.391.283.479l4.942 2.852c2.685 1.337 4.326-.235 4.326-1.827V16.357c0-.293.234-.517.527-.517h2.285c.284 0 .528.224.528.517v20.557c0 3.574-1.953 5.625-5.342 5.625-1.045 0-1.865 0-4.15-1.133l-4.727-2.724A3.797 3.797 0 0 1 .068 35.39V14.58a3.81 3.81 0 0 1 1.895-3.292L19.98.88c1.143-.645 2.657-.645 3.79 0L41.807 11.3a3.797 3.797 0 0 1 1.894 3.29V35.4a3.821 3.821 0 0 1-1.894 3.291l-18.038 10.41a3.798 3.798 0 0 1-1.894.508Zm14.56-20.518c0-3.897-2.636-4.932-8.173-5.664-5.606-.742-6.172-1.123-6.172-2.432 0-1.084.478-2.53 4.629-2.53 3.7 0 5.068.802 5.634 3.302.05.234.264.41.508.41h2.344a.51.51 0 0 0 .38-.166.544.544 0 0 0 .138-.4c-.362-4.307-3.223-6.31-9.004-6.31-5.147 0-8.213 2.169-8.213 5.811 0 3.946 3.056 5.04 7.988 5.528 5.908.576 6.367 1.445 6.367 2.607 0 2.012-1.62 2.871-5.42 2.871-4.775 0-5.82-1.201-6.171-3.574a.517.517 0 0 0-.518-.44h-2.334a.515.515 0 0 0-.518.518c0 3.037 1.65 6.66 9.551 6.66 5.703-.01 8.984-2.265 8.984-6.191Z"/>
  </g>
  <defs>
    <clipPath id="a">
      <path fill="#fff" d="M0 0h43.75v50H0z"/>
    </clipPath>
  </defs>
</svg>
