<svg xmlns="http://www.w3.org/2000/svg" width="50" height="50" fill="none" viewBox="0 0 50 50">
  <path fill="#fff" d="M40.84 17.305a49.222 49.222 0 0 0-1.582-.498c.088-.362.166-.723.244-1.084 1.201-5.82.41-10.498-2.256-12.041-2.568-1.475-6.758.058-10.996 3.75-.42.361-.83.742-1.22 1.123a29.615 29.615 0 0 0-.811-.752c-4.444-3.946-8.897-5.606-11.563-4.053-2.558 1.484-3.32 5.889-2.246 11.396.108.547.225 1.084.361 1.631-.625.176-1.24.371-1.816.576C3.74 19.16 0 22.012 0 24.962c0 3.047 3.984 6.104 9.404 7.959.44.146.88.293 1.328.42a35.183 35.183 0 0 0-.39 1.758c-1.026 5.42-.225 9.716 2.334 11.191 2.636 1.523 7.07-.039 11.386-3.818.342-.303.684-.615 1.026-.948.43.42.879.82 1.328 1.211 4.18 3.594 8.31 5.05 10.86 3.575 2.636-1.524 3.495-6.143 2.382-11.768a40.79 40.79 0 0 0-.293-1.318c.313-.088.615-.186.918-.284C45.918 31.074 50 28.057 50 24.961c0-2.959-3.848-5.83-9.16-7.656ZM27.627 9.014c3.633-3.164 7.021-4.405 8.564-3.516 1.65.947 2.286 4.775 1.25 9.805-.068.332-.136.654-.224.976a50.004 50.004 0 0 0-6.572-1.035 49.34 49.34 0 0 0-4.16-5.185c.38-.362.751-.704 1.142-1.045ZM16.328 30.029c.498.85 1.006 1.7 1.543 2.53a44.24 44.24 0 0 1-4.531-.733 45.61 45.61 0 0 1 1.592-4.346c.449.86.908 1.71 1.396 2.55ZM13.37 18.281c1.406-.312 2.9-.566 4.453-.761A58.37 58.37 0 0 0 16.319 20c-.478.83-.947 1.68-1.386 2.54a46.574 46.574 0 0 1-1.563-4.259Zm2.676 6.729a61.372 61.372 0 0 1 2.09-3.965 58.868 58.868 0 0 1 2.383-3.799A61.265 61.265 0 0 1 25 17.08c1.523 0 3.027.059 4.482.166a68.24 68.24 0 0 1 2.373 3.78 66.58 66.58 0 0 1 2.12 3.945 64.765 64.765 0 0 1-2.11 3.984 66.763 66.763 0 0 1-2.363 3.809A61.479 61.479 0 0 1 25 32.92a72.82 72.82 0 0 1-4.453-.137 59.408 59.408 0 0 1-4.502-7.773Zm17.637 5c.498-.86.966-1.729 1.425-2.608a45.339 45.339 0 0 1 1.65 4.326 42.902 42.902 0 0 1-4.589.782c.527-.82 1.025-1.66 1.514-2.5Zm1.406-7.47a81.156 81.156 0 0 0-1.416-2.56 64.43 64.43 0 0 0-1.494-2.46c1.572.195 3.076.459 4.482.78a43.25 43.25 0 0 1-1.572 4.24Zm-10.07-10.988a42.905 42.905 0 0 1 2.891 3.496 64.05 64.05 0 0 0-5.81 0 49.369 49.369 0 0 1 2.92-3.496ZM13.692 5.566c1.641-.957 5.284.41 9.121 3.809.245.215.489.45.743.684a49.616 49.616 0 0 0-4.19 5.185 51.48 51.48 0 0 0-6.562 1.016 36.99 36.99 0 0 1-.342-1.514c-.918-4.726-.313-8.29 1.23-9.18ZM11.3 31.31c-.41-.118-.81-.245-1.211-.381-2.08-.655-4.443-1.69-6.152-3.047A4.382 4.382 0 0 1 2.1 24.96c0-1.787 3.086-4.072 7.539-5.625a33.926 33.926 0 0 1 1.69-.537 51.65 51.65 0 0 0 2.392 6.21 53.395 53.395 0 0 0-2.422 6.3Zm11.387 9.57a17.874 17.874 0 0 1-5.508 3.447 4.322 4.322 0 0 1-3.448.127c-1.552-.898-2.197-4.346-1.318-8.984.107-.547.225-1.094.361-1.631 2.188.469 4.395.79 6.631.957a51.556 51.556 0 0 0 4.219 5.215c-.313.303-.625.596-.938.869Zm2.392-2.373a46.201 46.201 0 0 1-2.959-3.545c.938.039 1.904.059 2.881.059 1.006 0 1.992-.02 2.969-.069a42.124 42.124 0 0 1-2.89 3.555Zm12.764 2.93a4.34 4.34 0 0 1-1.611 3.056c-1.553.899-4.864-.273-8.438-3.34a41.64 41.64 0 0 1-1.24-1.123 48.297 48.297 0 0 0 4.12-5.234 48.125 48.125 0 0 0 6.661-1.026c.098.4.185.801.264 1.192.478 2.11.556 4.307.244 6.474Zm1.777-10.498c-.273.087-.547.175-.83.253a49.612 49.612 0 0 0-2.49-6.23 49.368 49.368 0 0 0 2.392-6.143c.508.147.996.303 1.465.46 4.551 1.562 7.744 3.886 7.744 5.663 0 1.915-3.408 4.385-8.28 5.997ZM25 29.473a4.472 4.472 0 1 0 0-8.946 4.472 4.472 0 1 0 0 8.946Z"/>
</svg>
