<svg xmlns="http://www.w3.org/2000/svg" width="63" height="50" fill="none" viewBox="0 0 63 50">
  <g clip-path="url(#a)">
    <path fill="#fff" d="M29.477 37.004c-.03.059-.059.105 0 0Zm24.329-8.496c-1.964 0-3.902.45-5.664 1.318-.577-1.162-1.172-2.178-1.27-2.94-.117-.888-.244-1.415-.107-2.47.136-1.055.752-2.549.742-2.656-.01-.108-.137-.645-1.397-.655-1.26-.01-2.343.245-2.47.577a11.99 11.99 0 0 0-.517 1.865c-.224 1.142-2.518 5.224-3.817 7.353-.43-.83-.791-1.562-.87-2.148-.117-.889-.244-1.416-.107-2.47.137-1.055.752-2.55.742-2.657-.01-.107-.136-.645-1.395-.654-1.259-.01-2.344.244-2.47.576-.128.332-.265 1.113-.519 1.865-.253.752-3.31 7.549-4.109 9.316a48.84 48.84 0 0 1-1.015 2.11c-.04.078-.069.127-.088.166.029-.049.048-.098.048-.078-.214.42-.341.654-.341.654v.01c-.166.312-.352.596-.44.596-.058 0-.185-.82.03-1.944.459-2.363 1.543-6.035 1.533-6.162-.01-.068.205-.703-.713-1.045-.889-.322-1.211.215-1.29.215-.077 0-.136.195-.136.195s.986-4.14-1.893-4.14c-1.797 0-4.297 1.972-5.526 3.76-.771.42-2.441 1.328-4.2 2.294-.673.371-1.366.752-2.02 1.114-.05-.05-.088-.098-.137-.147-3.495-3.73-9.949-6.367-9.675-11.377.098-1.826.732-6.62 12.409-12.441 9.57-4.766 17.222-3.457 18.54-.547 1.894 4.15-4.092 11.875-14.03 12.988-3.788.42-5.78-1.045-6.277-1.592-.518-.576-.596-.605-.792-.498-.322.176-.117.684 0 .987.293.771 1.514 2.138 3.593 2.822 1.826.596 6.268.928 11.638-1.152 6.033-2.325 10.73-8.8 9.352-14.22C37.746 1.79 28.613-.017 19.978 3.05c-5.146 1.826-10.71 4.697-14.713 8.437C.51 15.94-.251 19.816.062 21.437c1.112 5.752 9.04 9.502 12.212 12.276-.156.088-.302.166-.439.244-1.59.791-7.635 3.955-9.147 7.295-1.71 3.789.283 6.504 1.59 6.875 4.081 1.133 8.26-.908 10.505-4.258 2.245-3.35 1.973-7.724.938-9.717-.01-.029-.03-.049-.04-.078.41-.244.83-.488 1.25-.732.81-.479 1.601-.918 2.295-1.299-.391 1.055-.674 2.324-.82 4.16-.176 2.149.712 4.932 1.864 6.025.508.479 1.123.489 1.503.489 1.348 0 1.954-1.114 2.626-2.442.83-1.62 1.563-3.505 1.563-3.505s-.918 5.097 1.592 5.097c.917 0 1.835-1.181 2.246-1.787v.01s.02-.04.068-.117c.098-.147.147-.235.147-.235v-.029c.37-.635 1.181-2.09 2.401-4.492 1.582-3.106 3.095-6.983 3.095-6.983.146.853.348 1.694.605 2.52.274.928.85 1.943 1.309 2.93-.371.507-.596.8-.596.8a.03.03 0 0 0 .01.02c-.293.39-.625.81-.967 1.22-1.249 1.485-2.734 3.184-2.93 3.673-.234.576-.175 1.005.274 1.337.332.254.918.293 1.532.244 1.123-.078 1.914-.351 2.295-.527a8.03 8.03 0 0 0 1.972-1.035c1.22-.898 1.963-2.188 1.894-3.887-.039-.937-.342-1.875-.713-2.754.108-.156.225-.322.332-.488 1.933-2.822 3.427-5.92 3.427-5.92.146.852.349 1.694.606 2.52.234.79.692 1.66 1.112 2.51-1.816 1.474-2.939 3.183-3.33 4.306-.722 2.08-.156 3.018.909 3.233.478.097 1.162-.127 1.67-.342a7.759 7.759 0 0 0 2.108-1.084c1.221-.899 2.402-2.158 2.323-3.867-.029-.772-.244-1.543-.527-2.286 1.533-.644 3.525-.996 6.064-.703 5.437.635 6.502 4.034 6.297 5.45-.206 1.416-1.348 2.207-1.729 2.44-.38.235-.498.323-.469.499.05.254.225.244.547.185.45-.078 2.85-1.152 2.958-3.779.156-3.32-3.036-6.972-8.691-6.943l.003.002Zm-41.912 14.13c-1.796 1.964-4.316 2.706-5.399 2.08-1.162-.675-.703-3.564 1.513-5.656 1.347-1.269 3.085-2.44 4.237-3.163.264-.157.645-.391 1.113-.674.079-.05.118-.069.118-.069.087-.058.185-.107.283-.166.81 2.969.03 5.586-1.865 7.647v.002Zm13.12-8.925c-.624 1.533-1.942 5.44-2.742 5.234-.684-.175-1.104-3.154-.137-6.084.488-1.474 1.523-3.232 2.138-3.916.986-1.103 2.07-1.455 2.324-1.015.341.576-1.192 4.824-1.582 5.78Zm10.84 5.176c-.263.136-.507.224-.624.156-.088-.049.107-.234.107-.234s1.357-1.456 1.894-2.12c.313-.39.674-.85 1.064-1.357 0 .049.01.098.01.156-.013 1.748-1.692 2.93-2.453 3.399h.003Zm8.358-1.905c-.195-.136-.166-.595.488-2.021.254-.557.84-1.494 1.856-2.393.115.34.177.696.185 1.055-.01 2.197-1.582 3.018-2.528 3.36h-.001Z"/>
  </g>
  <defs>
    <clipPath id="a">
      <path fill="#fff" d="M0 0h62.5v50H0z"/>
    </clipPath>
  </defs>
</svg>
