<svg xmlns="http://www.w3.org/2000/svg" width="44" height="50" fill="none" viewBox="0 0 44 50">
  <g clip-path="url(#a)">
    <path fill="#fff" d="M39.16 3.125H4.7c-2.595 0-4.7 2.1-4.7 4.688v34.374a4.695 4.695 0 0 0 4.7 4.688h34.46c2.595 0 4.7-2.1 4.7-4.688V7.813a4.695 4.695 0 0 0-4.7-4.688ZM23.868 37.246c0 4.258-2.506 6.201-6.158 6.201-3.299 0-5.208-1.699-6.187-3.76l3.358-2.021c.646 1.143 1.233 2.11 2.653 2.11 1.351 0 2.213-.528 2.213-2.589V23.213h4.121v14.033Zm9.751 6.201c-3.828 0-6.305-1.816-7.509-4.199l3.358-1.933c.881 1.435 2.037 2.5 4.063 2.5 1.704 0 2.8-.85 2.8-2.032 0-1.406-1.116-1.904-3.006-2.734l-1.028-.44c-2.976-1.26-4.943-2.851-4.943-6.2 0-3.087 2.359-5.43 6.03-5.43 2.624 0 4.504.908 5.855 3.29l-3.211 2.051c-.705-1.26-1.469-1.758-2.654-1.758-1.204 0-1.967.762-1.967 1.758 0 1.23.763 1.729 2.535 2.5l1.028.44c3.505 1.494 5.473 3.027 5.473 6.465 0 3.691-2.917 5.722-6.824 5.722Z"/>
  </g>
  <defs>
    <clipPath id="a">
      <path fill="#fff" d="M0 0h43.86v50H0z"/>
    </clipPath>
  </defs>
</svg>
